<svg width="391" height="285" viewBox="0 0 391 285" fill="none" xmlns="http://www.w3.org/2000/svg">
<path d="M236.381 269.693C211.341 278.993 184.271 278.953 155.181 269.573C152.981 268.863 151.471 266.753 151.471 264.363V21.3532C151.471 19.0432 152.881 16.9932 154.981 16.2132C184.241 5.32324 211.451 5.28324 236.611 16.0932C238.581 16.9432 239.871 18.9232 239.871 21.1432V264.553C239.871 266.853 238.471 268.913 236.381 269.693Z" fill="#7C7F87"/>
<path d="M236.381 265.323C211.341 274.283 184.271 274.243 155.181 265.213C152.981 264.533 151.471 262.503 151.471 260.193V26.0631C151.471 23.8331 152.881 21.8631 154.981 21.1131C184.241 10.6231 211.451 10.5831 236.611 21.0031C238.581 21.8231 239.871 23.7331 239.871 25.8631V260.373C239.871 262.593 238.471 264.573 236.381 265.323Z" fill="#DADBDE"/>
<path d="M154.852 85.0933C184.112 79.8433 211.322 79.8333 236.482 85.0333" stroke="#7C7F87" stroke-width="4" stroke-miterlimit="10" stroke-linecap="round"/>
<path d="M205.65 93.584H185.69C184.796 93.584 184.07 94.3093 184.07 95.204V124.854C184.07 125.749 184.796 126.474 185.69 126.474H205.65C206.545 126.474 207.27 125.749 207.27 124.854V95.204C207.27 94.3093 206.545 93.584 205.65 93.584Z" fill="#50545F"/>
<path d="M204.36 95.6641H186.99C186.394 95.6641 185.91 96.1476 185.91 96.7441V112.034C185.91 112.631 186.394 113.114 186.99 113.114H204.36C204.957 113.114 205.44 112.631 205.44 112.034V96.7441C205.44 96.1476 204.957 95.6641 204.36 95.6641Z" fill="#74DDD7"/>
<path d="M195.71 123.023C197.615 123.023 199.16 121.478 199.16 119.573C199.16 117.668 197.615 116.123 195.71 116.123C193.804 116.123 192.26 117.668 192.26 119.573C192.26 121.478 193.804 123.023 195.71 123.023Z" fill="#A8AAAF"/>
<path d="M203.01 121.333C203.982 121.333 204.77 120.545 204.77 119.573C204.77 118.6 203.982 117.812 203.01 117.812C202.038 117.812 201.25 118.6 201.25 119.573C201.25 120.545 202.038 121.333 203.01 121.333Z" fill="#A8AAAF"/>
<path d="M188.401 121.333C189.373 121.333 190.161 120.545 190.161 119.573C190.161 118.6 189.373 117.812 188.401 117.812C187.429 117.812 186.641 118.6 186.641 119.573C186.641 120.545 187.429 121.333 188.401 121.333Z" fill="#A8AAAF"/>
<path d="M234.08 131.233C235.411 131.233 236.49 128.448 236.49 125.013C236.49 121.578 235.411 118.793 234.08 118.793C232.749 118.793 231.67 121.578 231.67 125.013C231.67 128.448 232.749 131.233 234.08 131.233Z" fill="#E02819"/>
<path d="M234.08 258.313C235.411 258.313 236.49 255.528 236.49 252.093C236.49 248.658 235.411 245.873 234.08 245.873C232.749 245.873 231.67 248.658 231.67 252.093C231.67 255.528 232.749 258.313 234.08 258.313Z" fill="#0073E0"/>
<g style="mix-blend-mode:multiply" opacity="0.22">
<path d="M164.371 264.363L154.511 261.143C153.871 260.863 153.441 260.053 153.441 259.143V26.6032C153.441 25.6832 153.881 24.8632 154.531 24.5932L164.391 20.4632C165.391 20.0432 166.401 21.0532 166.401 22.4732V262.373C166.401 263.803 165.371 264.813 164.371 264.373V264.363Z" fill="#A8AAAF"/>
</g>
<g style="mix-blend-mode:multiply" opacity="0.22">
<path d="M222.941 267.103L236.181 262.683C237.041 262.393 237.621 261.583 237.621 260.653V24.7433C237.621 23.8133 237.031 22.9833 236.151 22.7033L222.911 18.5133C221.571 18.0933 220.211 19.1133 220.211 20.5533V265.073C220.211 266.523 221.591 267.553 222.941 267.103Z" fill="#A8AAAF"/>
</g>
</svg>
