<svg width="391" height="285" viewBox="0 0 391 285" fill="none" xmlns="http://www.w3.org/2000/svg">
<path d="M21.4902 161.221V147.371L119.36 168.181V185.191L21.4902 161.221Z" fill="#E9EAEB"/>
<path d="M21.4902 147.372L229.66 130.502L339.24 145.432L119.36 168.182L21.4902 147.372Z" fill="#A8AAAF"/>
<path d="M339.239 231.702L119.359 268.222V168.042L339.239 145.342V231.702Z" fill="#D3D4D7"/>
<path d="M339.239 145.432L119.359 168.182V19.2425L339.239 13.0625V145.432Z" fill="#D3D4D7"/>
<path d="M106.4 182.242L119.36 185.242V268.272L106.4 265.372V182.242Z" fill="#E9EAEB"/>
<path d="M106.4 19.1523L119.36 19.2023V168.182L106.4 165.612V19.1523Z" fill="#E9EAEB"/>
<path d="M119.359 19.1919L165.009 17.9219V44.8219L119.359 46.8619" stroke="#A8AAAF" stroke-width="0.5" stroke-miterlimit="10"/>
<path d="M208.21 42.9029L165.01 44.8329V17.9129L208.21 16.7129V42.9029Z" stroke="#A8AAAF" stroke-width="0.5" stroke-miterlimit="10"/>
<path d="M249.169 41.0823L208.209 42.9023V16.7123L249.169 15.5723V41.0823Z" stroke="#A8AAAF" stroke-width="0.5" stroke-miterlimit="10"/>
<path d="M288.05 39.3524L249.17 41.0824V15.5724L288.05 14.4824V39.3524Z" stroke="#A8AAAF" stroke-width="0.5" stroke-miterlimit="10"/>
<path d="M339.241 13.4629V37.7029L288.051 39.3429V14.4929L339.241 13.4629Z" stroke="#A8AAAF" stroke-width="0.5" stroke-miterlimit="10"/>
<path d="M179.96 70.8321L135.16 73.5721V46.1621L179.96 44.1621V70.8321Z" stroke="#A8AAAF" stroke-width="0.5" stroke-miterlimit="10"/>
<path d="M119.359 46.8623L135.159 46.1523V73.5723L119.359 74.5423" stroke="#A8AAAF" stroke-width="0.5" stroke-miterlimit="10"/>
<path d="M222.379 68.2315L179.959 70.8315V44.1615L222.379 42.2715V68.2315Z" stroke="#A8AAAF" stroke-width="0.5" stroke-miterlimit="10"/>
<path d="M262.611 65.7724L222.381 68.2324V42.2724L262.611 40.4824V65.7724Z" stroke="#A8AAAF" stroke-width="0.5" stroke-miterlimit="10"/>
<path d="M300.809 63.4332L262.609 65.7732V40.4832L300.809 38.7832V63.4332Z" stroke="#A8AAAF" stroke-width="0.5" stroke-miterlimit="10"/>
<path d="M339.241 61.9531L300.811 63.4331V38.7731L339.241 37.7031" stroke="#A8AAAF" stroke-width="0.5" stroke-miterlimit="10"/>
<path d="M119.359 74.543L154.799 72.373V99.463L119.359 102.223" stroke="#A8AAAF" stroke-width="0.5" stroke-miterlimit="10"/>
<path d="M198.551 96.0514L154.801 99.4614V72.3714L198.551 69.6914V96.0514Z" stroke="#A8AAAF" stroke-width="0.5" stroke-miterlimit="10"/>
<path d="M240.001 92.8223L198.551 96.0523V69.6923L240.001 67.1523V92.8223Z" stroke="#A8AAAF" stroke-width="0.5" stroke-miterlimit="10"/>
<path d="M279.34 89.762L240 92.822V67.152L279.34 64.752V89.762Z" stroke="#A8AAAF" stroke-width="0.5" stroke-miterlimit="10"/>
<path d="M316.71 86.8529L279.34 89.7629V64.7529L316.71 62.4629V86.8529Z" stroke="#A8AAAF" stroke-width="0.5" stroke-miterlimit="10"/>
<path d="M339.239 86.2131L316.709 86.8531V62.4631L339.239 61.9531" stroke="#A8AAAF" stroke-width="0.5" stroke-miterlimit="10"/>
<path d="M170.97 125.013L125.66 129.303V101.723L170.97 98.2031V125.013Z" stroke="#A8AAAF" stroke-width="0.5" stroke-miterlimit="10"/>
<path d="M119.359 102.222L125.669 101.732V129.292L119.359 129.892" stroke="#A8AAAF" stroke-width="0.5" stroke-miterlimit="10"/>
<path d="M213.861 120.961L170.971 125.011V98.2013L213.861 94.8613V120.961Z" stroke="#A8AAAF" stroke-width="0.5" stroke-miterlimit="10"/>
<path d="M254.529 117.111L213.859 120.961V94.8614L254.529 91.6914V117.111Z" stroke="#A8AAAF" stroke-width="0.5" stroke-miterlimit="10"/>
<path d="M293.129 113.462L254.529 117.112V91.6916L293.129 88.6816V113.462Z" stroke="#A8AAAF" stroke-width="0.5" stroke-miterlimit="10"/>
<path d="M339.241 86.2129L293.131 88.6929V113.463L339.241 110.453" stroke="#A8AAAF" stroke-width="0.5" stroke-miterlimit="10"/>
<path d="M183.779 150.403L139.199 155.363V128.023L183.779 123.803V150.403Z" stroke="#A8AAAF" stroke-width="0.5" stroke-miterlimit="10"/>
<path d="M119.359 129.892L139.199 128.012V155.372L119.359 157.572" stroke="#A8AAAF" stroke-width="0.5" stroke-miterlimit="10"/>
<path d="M225.999 145.713L183.779 150.403V123.803L225.999 119.812V145.713Z" stroke="#A8AAAF" stroke-width="0.5" stroke-miterlimit="10"/>
<path d="M266.04 141.261L226 145.711V119.811L266.04 116.021V141.261Z" stroke="#A8AAAF" stroke-width="0.5" stroke-miterlimit="10"/>
<path d="M304.079 137.032L266.039 141.262V116.022L304.079 112.432V137.032Z" stroke="#A8AAAF" stroke-width="0.5" stroke-miterlimit="10"/>
<path d="M339.24 134.713L304.08 137.033V112.433L339.24 110.453" stroke="#A8AAAF" stroke-width="0.5" stroke-miterlimit="10"/>
<path d="M170.97 178.642L125.66 184.442V156.872L170.97 151.832V178.642Z" stroke="#A8AAAF" stroke-width="0.5" stroke-miterlimit="10"/>
<path d="M213.861 173.162L170.971 178.643V151.832L213.861 147.062V173.162Z" stroke="#A8AAAF" stroke-width="0.5" stroke-miterlimit="10"/>
<path d="M254.529 167.963L213.859 173.163V147.063L254.529 142.543V167.963Z" stroke="#A8AAAF" stroke-width="0.5" stroke-miterlimit="10"/>
<path d="M293.129 163.022L254.529 167.962V142.542L293.129 138.242V163.022Z" stroke="#A8AAAF" stroke-width="0.5" stroke-miterlimit="10"/>
<path d="M339.241 158.943L293.131 163.023V138.253L339.241 134.713" stroke="#A8AAAF" stroke-width="0.5" stroke-miterlimit="10"/>
<path d="M119.359 185.242L148.629 181.502V208.692L119.359 212.922" stroke="#A8AAAF" stroke-width="0.5" stroke-miterlimit="10"/>
<path d="M192.701 202.323L148.631 208.693V181.503L192.701 175.873V202.323Z" stroke="#A8AAAF" stroke-width="0.5" stroke-miterlimit="10"/>
<path d="M234.459 196.283L192.699 202.323V175.873L234.459 170.533V196.283Z" stroke="#A8AAAF" stroke-width="0.5" stroke-miterlimit="10"/>
<path d="M274.079 190.563L234.459 196.283V170.533L274.079 165.463V190.563Z" stroke="#A8AAAF" stroke-width="0.5" stroke-miterlimit="10"/>
<path d="M311.71 185.122L274.08 190.562V165.462L311.71 160.652V185.122Z" stroke="#A8AAAF" stroke-width="0.5" stroke-miterlimit="10"/>
<path d="M339.241 183.201L311.721 185.121V160.641L339.241 158.941" stroke="#A8AAAF" stroke-width="0.5" stroke-miterlimit="10"/>
<path d="M179.96 230.832L135.16 238.052V210.642L179.96 204.162V230.832Z" stroke="#A8AAAF" stroke-width="0.5" stroke-miterlimit="10"/>
<path d="M222.379 223.993L179.959 230.833V204.163L222.379 198.033V223.993Z" stroke="#A8AAAF" stroke-width="0.5" stroke-miterlimit="10"/>
<path d="M262.611 217.513L222.381 223.993V198.033L262.611 192.223V217.513Z" stroke="#A8AAAF" stroke-width="0.5" stroke-miterlimit="10"/>
<path d="M300.809 211.353L262.609 217.513V192.223L300.809 186.703V211.353Z" stroke="#A8AAAF" stroke-width="0.5" stroke-miterlimit="10"/>
<path d="M339.241 207.463L300.811 211.363V186.703L339.241 183.203" stroke="#A8AAAF" stroke-width="0.5" stroke-miterlimit="10"/>
<path d="M119.359 240.602L159.269 234.172V261.172L119.359 268.272" stroke="#A8AAAF" stroke-width="0.5" stroke-miterlimit="10"/>
<path d="M202.77 253.442L159.27 261.172V234.162L202.77 227.152V253.442Z" stroke="#A8AAAF" stroke-width="0.5" stroke-miterlimit="10"/>
<path d="M244.01 246.102L202.77 253.442V227.152L244.01 220.502V246.102Z" stroke="#A8AAAF" stroke-width="0.5" stroke-miterlimit="10"/>
<path d="M283.15 239.143L244.01 246.103V220.503L283.15 214.203V239.143Z" stroke="#A8AAAF" stroke-width="0.5" stroke-miterlimit="10"/>
<path d="M334.59 232.533L283.15 239.143V214.203L334.59 208.203" stroke="#A8AAAF" stroke-width="0.5" stroke-miterlimit="10"/>
<path d="M334.58 208.213L339.24 207.463" stroke="#A8AAAF" stroke-width="0.5" stroke-miterlimit="10"/>
<path d="M339.24 231.703L334.58 232.533" stroke="#A8AAAF" stroke-width="0.5" stroke-miterlimit="10"/>
<path d="M119.359 157.573L125.659 156.873V184.433L119.359 185.243" stroke="#A8AAAF" stroke-width="0.5" stroke-miterlimit="10"/>
<path d="M119.359 212.923L135.159 210.643V237.843L119.359 240.393" stroke="#A8AAAF" stroke-width="0.5" stroke-miterlimit="10"/>
<path d="M186.13 144.282L170.67 140.182V259.532L186.13 263.632V144.282Z" fill="#337975"/>
<path d="M348.831 128.652L186.131 144.142V263.632L348.831 233.592V128.652Z" fill="#74DDD7"/>
<path d="M170.67 140.182L186.13 144.142L348.83 128.652L314.07 125.012L170.67 140.182Z" fill="#337975"/>
<path d="M251.55 15.082H242.43V132.932L251.55 137.382V15.082Z" fill="#337975"/>
<path d="M348.831 12.8418L251.551 15.0718V137.842L348.831 128.952V12.8418Z" fill="#74DDD7"/>
<path d="M267.48 195.393C269.761 195.393 271.61 193.544 271.61 191.263C271.61 188.982 269.761 187.133 267.48 187.133C265.199 187.133 263.35 188.982 263.35 191.263C263.35 193.544 265.199 195.393 267.48 195.393Z" fill="#D1F3F2"/>
<path d="M267.48 148.522C269.761 148.522 271.61 146.673 271.61 144.392C271.61 142.111 269.761 140.262 267.48 140.262C265.199 140.262 263.35 142.111 263.35 144.392C263.35 146.673 265.199 148.522 267.48 148.522Z" fill="#D1F3F2"/>
<path d="M196.55 157.852C198.831 157.852 200.68 156.003 200.68 153.722C200.68 151.441 198.831 149.592 196.55 149.592C194.269 149.592 192.42 151.441 192.42 153.722C192.42 156.003 194.269 157.852 196.55 157.852Z" fill="#D1F3F2"/>
<path d="M267.48 101.653C269.761 101.653 271.61 99.8035 271.61 97.5226C271.61 95.2416 269.761 93.3926 267.48 93.3926C265.199 93.3926 263.35 95.2416 263.35 97.5226C263.35 99.8035 265.199 101.653 267.48 101.653Z" fill="#D1F3F2"/>
<path d="M267.48 54.7815C269.761 54.7815 271.61 52.9324 271.61 50.6515C271.61 48.3705 269.761 46.5215 267.48 46.5215C265.199 46.5215 263.35 48.3705 263.35 50.6515C263.35 52.9324 265.199 54.7815 267.48 54.7815Z" fill="#D1F3F2"/>
<path d="M329.61 50.9924C331.891 50.9924 333.74 49.1434 333.74 46.8624C333.74 44.5815 331.891 42.7324 329.61 42.7324C327.33 42.7324 325.48 44.5815 325.48 46.8624C325.48 49.1434 327.33 50.9924 329.61 50.9924Z" fill="#D1F3F2"/>
<path d="M196.55 201.303C198.831 201.303 200.68 199.454 200.68 197.173C200.68 194.892 198.831 193.043 196.55 193.043C194.269 193.043 192.42 194.892 192.42 197.173C192.42 199.454 194.269 201.303 196.55 201.303Z" fill="#D1F3F2"/>
<path d="M196.55 244.762C198.831 244.762 200.68 242.913 200.68 240.632C200.68 238.351 198.831 236.502 196.55 236.502C194.269 236.502 192.42 238.351 192.42 240.632C192.42 242.913 194.269 244.762 196.55 244.762Z" fill="#D1F3F2"/>
<path d="M222.181 256.772C222.181 256.772 215.101 211.762 230.941 204.102C246.781 196.442 275.031 180.152 281.981 155.212C288.941 130.272 293.511 68.0223 313.451 60.2023C333.391 52.3823 348.831 46.1523 348.831 46.1523L347.731 233.572L222.181 256.772Z" fill="#80B9F0"/>
<path d="M224.071 256.533C224.071 256.533 216.731 212.893 232.471 205.313C248.211 197.733 276.581 180.683 283.491 155.993C290.401 131.303 294.951 69.683 314.761 61.933C334.571 54.193 348.821 49.043 348.821 49.043V233.573L224.061 256.533H224.071Z" fill="#DBE9F8"/>
</svg>
