<svg width="391" height="285" viewBox="0 0 391 285" fill="none" xmlns="http://www.w3.org/2000/svg">
<path d="M207.949 242.622L320.089 269.282V48.4824L207.949 71.4224V242.622Z" fill="#DADBDE"/>
<path d="M320.09 269.282L327.42 267.282V50.4824L320.09 48.4824V269.282Z" fill="#E9EAEB"/>
<path d="M154.62 12.623L141.02 36.223H141.95L130.22 56.883L130.89 57.683L120.75 76.223L121.55 77.283L111.29 94.883L112.49 95.423L102.89 111.953L103.69 113.023L94.0199 128.833L94.8699 129.783L86.0199 144.833L86.9699 145.583L78.5199 159.983L79.1199 160.633L71.3199 174.233L72.0199 175.033L64.4199 188.133L64.9199 189.333L192.42 183.283L285.82 46.753L154.62 12.623Z" fill="#A8AAAF"/>
<path d="M156.441 41.8916L140.721 38.4116L141.601 36.8516L157.321 40.3316L156.441 41.8916Z" fill="#D3D4D7"/>
<path d="M142.841 61.4521L130.141 59.2421L131.001 57.6621L143.701 59.8721L142.841 61.4521Z" fill="#D3D4D7"/>
<path d="M133.75 80.7329L120.59 79.0429L121.45 77.4629L134.62 79.1529L133.75 80.7329Z" fill="#D3D4D7"/>
<path d="M124.74 98.5816L111.27 97.6716L112.14 96.1016L125.6 97.0016L124.74 98.5816Z" fill="#D3D4D7"/>
<path d="M116.219 115.633L102.459 115.073L103.389 113.553L117.079 114.053L116.219 115.633Z" fill="#D3D4D7"/>
<path d="M104.77 132.413L93.6797 131.963L94.5897 130.393L105.64 130.833L104.77 132.413Z" fill="#D3D4D7"/>
<path d="M100.91 147.892L85.9199 147.422L86.7799 145.852L101.77 146.312L100.91 147.892Z" fill="#D3D4D7"/>
<path d="M91.7699 162.762L78.1699 162.472L79.0299 160.902L92.6299 161.182L91.7699 162.762Z" fill="#D3D4D7"/>
<path d="M82.1906 177.251L70.8906 176.971L71.8406 175.361L83.0606 175.681L82.1906 177.251Z" fill="#D3D4D7"/>
<path d="M162.22 20.4824L78.1699 182.242L198.22 176.682L281.42 50.4824L162.22 20.4824Z" fill="#D3D4D7"/>
<path d="M199.71 175.282H193.49L285.37 41.5723L290.73 43.2023L199.71 175.282Z" fill="#E9EAEB"/>
<path d="M85.3609 182.982H79.1309L171.561 8.85156L176.921 10.4816L85.3609 182.982Z" fill="#E9EAEB"/>
<path d="M113.322 180.681H107.092L200.402 16.4512L205.762 18.0812L113.322 180.681Z" fill="#E9EAEB"/>
<path d="M137.3 179.082H131.07L225.79 22.8223L231.15 24.4523L137.3 179.082Z" fill="#E9EAEB"/>
<path d="M160.001 177.251H153.771L247.801 29.7109L253.161 31.3409L160.001 177.251Z" fill="#E9EAEB"/>
<path d="M181.701 176.882H175.471L267.671 35.1816L273.031 36.8116L181.701 176.882Z" fill="#E9EAEB"/>
<path d="M82.0205 268.581L76.9805 267.381V182.281L82.0205 183.481V268.581Z" fill="#D3D4D7"/>
<path d="M76.9805 182.282L207.82 177.252V242.882L82.0205 268.582V183.482L76.9805 182.282Z" fill="#DADBDE"/>
<path d="M100.621 242.052L83.0605 237.282V227.082L100.621 231.282L317.621 228.082V237.882L100.621 242.052Z" fill="#E9EAEB"/>
<path d="M83.0605 227.082L210.821 210.482L317.621 228.082L100.621 231.282L83.0605 227.082Z" fill="#D3D4D7"/>
<path d="M106.1 173.233V225.743L100.26 224.743V172.233L129.8 114.213L137.7 113.963L106.1 173.233Z" fill="#337975"/>
<path d="M106.02 225.862V173.352L137.62 114.082L178.42 117.882L146.02 173.282V220.082L106.02 225.862Z" fill="#74DDD7"/>
<path d="M124.721 106.783L129.121 114.083L203.471 118.283L196.921 111.583L124.721 106.783Z" fill="#E9EAEB"/>
<path d="M122.92 110.183L127.12 117.083L129.12 114.083L124.72 106.783L122.92 110.183Z" fill="#F8F8F8"/>
<path d="M203.469 118.284L129.119 114.084L127.119 117.084L203.019 121.184L203.469 118.284Z" fill="#D3D4D7"/>
<path d="M204.701 79.9629L180.561 115.963L177.641 110.273L201.361 73.4329L255.501 65.9629L318.701 72.5429V78.6429L254.701 73.9629L204.701 79.9629Z" fill="#337975"/>
<path d="M170.141 131.322L204.621 80.082L254.621 74.082L318.751 78.652L253.591 92.692L209.981 134.982L170.141 131.322Z" fill="#74DDD7"/>
<path d="M212.4 168.702L268.41 89.422L297.32 83.292V82.722L255.28 82.332L228.18 87.362L208.99 115.102L172.18 114.002L142.02 171.502V221.422L142.4 220.882L212.4 168.702Z" fill="#80B9F0"/>
<path d="M297.32 83.2919L268.59 90.0119L212.75 168.352L142.4 171.552L172.35 114.592L209.17 115.692L228.35 87.9519L255.45 82.9219L297.32 83.2919Z" fill="white"/>
<path d="M213.02 210.483L142.4 220.883L142.41 172.173L213.03 168.703L213.02 210.483Z" fill="white"/>
<path d="M264.019 61.623L201.289 70.023V73.5531L264.019 65.153V61.623Z" fill="#E9EAEB"/>
</svg>
