<svg width="391" height="285" viewBox="0 0 391 285" fill="none" xmlns="http://www.w3.org/2000/svg">
<path d="M193.759 51.7419L78.459 24.6719V267.412L193.759 244.172V51.7419Z" fill="#D3D4D7"/>
<path d="M78.4591 24.6621L71.1191 26.6621V265.412L78.4591 267.412V24.6621Z" fill="#E9EAEB"/>
<path d="M78.459 94.8926L107.029 100.943V118.773L78.459 114.023" stroke="#A8AAAF" stroke-width="0.5" stroke-miterlimit="10"/>
<path d="M131.959 122.921L107.029 118.771V100.941L131.959 106.221V122.921Z" stroke="#A8AAAF" stroke-width="0.5" stroke-miterlimit="10"/>
<path d="M153.899 126.573L131.959 122.923V106.223L153.899 110.873V126.573Z" stroke="#A8AAAF" stroke-width="0.5" stroke-miterlimit="10"/>
<path d="M173.348 129.803L153.898 126.573V110.873L173.348 114.993V129.803Z" stroke="#A8AAAF" stroke-width="0.5" stroke-miterlimit="10"/>
<path d="M190.72 118.682V132.682L173.35 129.802V115.002L190.72 118.682Z" stroke="#A8AAAF" stroke-width="0.5" stroke-miterlimit="10"/>
<path d="M115.879 137.683L88.6191 134.393V115.713L115.879 120.243V137.683Z" stroke="#A8AAAF" stroke-width="0.5" stroke-miterlimit="10"/>
<path d="M78.459 114.021L88.629 115.711V134.391L78.459 133.171" stroke="#A8AAAF" stroke-width="0.5" stroke-miterlimit="10"/>
<path d="M139.719 140.552L115.879 137.682V120.242L139.719 124.212V140.552Z" stroke="#A8AAAF" stroke-width="0.5" stroke-miterlimit="10"/>
<path d="M160.769 143.093L139.719 140.553V124.213L160.769 127.713V143.093Z" stroke="#A8AAAF" stroke-width="0.5" stroke-miterlimit="10"/>
<path d="M179.47 145.353L160.77 143.093V127.713L179.47 130.823V145.353Z" stroke="#A8AAAF" stroke-width="0.5" stroke-miterlimit="10"/>
<path d="M190.719 146.702L179.469 145.352V130.812L190.719 132.682" stroke="#A8AAAF" stroke-width="0.5" stroke-miterlimit="10"/>
<path d="M78.459 133.172L100.849 135.872V153.992L78.459 152.312" stroke="#A8AAAF" stroke-width="0.5" stroke-miterlimit="10"/>
<path d="M126.55 155.913L100.85 153.983V135.873L126.55 138.963V155.913Z" stroke="#A8AAAF" stroke-width="0.5" stroke-miterlimit="10"/>
<path d="M149.119 157.603L126.549 155.913V138.963L149.119 141.693V157.603Z" stroke="#A8AAAF" stroke-width="0.5" stroke-miterlimit="10"/>
<path d="M169.109 159.101L149.119 157.601V141.691L169.109 144.101V159.101Z" stroke="#A8AAAF" stroke-width="0.5" stroke-miterlimit="10"/>
<path d="M186.919 160.432L169.109 159.102V144.102L186.919 146.242V160.432Z" stroke="#A8AAAF" stroke-width="0.5" stroke-miterlimit="10"/>
<path d="M190.72 160.722L186.92 160.442V146.252L190.72 146.702" stroke="#A8AAAF" stroke-width="0.5" stroke-miterlimit="10"/>
<path d="M110.589 172.391L82.5488 171.571V152.611L110.589 154.711V172.391Z" stroke="#A8AAAF" stroke-width="0.5" stroke-miterlimit="10"/>
<path d="M78.459 152.312L82.549 152.622V171.572L78.459 171.452" stroke="#A8AAAF" stroke-width="0.5" stroke-miterlimit="10"/>
<path d="M135.08 173.103L110.59 172.393V154.713L135.08 156.553V173.103Z" stroke="#A8AAAF" stroke-width="0.5" stroke-miterlimit="10"/>
<path d="M156.66 173.743L135.08 173.103V156.553L156.66 158.173V173.743Z" stroke="#A8AAAF" stroke-width="0.5" stroke-miterlimit="10"/>
<path d="M175.808 174.302L156.658 173.742V158.172L175.808 159.602V174.302Z" stroke="#A8AAAF" stroke-width="0.5" stroke-miterlimit="10"/>
<path d="M190.719 174.731L175.809 174.291V159.611L190.719 160.721" stroke="#A8AAAF" stroke-width="0.5" stroke-miterlimit="10"/>
<path d="M118.1 189.942L91.1699 190.382V171.822L118.1 172.612V189.942Z" stroke="#A8AAAF" stroke-width="0.5" stroke-miterlimit="10"/>
<path d="M78.459 171.451L91.179 171.821V190.381L78.459 190.591" stroke="#A8AAAF" stroke-width="0.5" stroke-miterlimit="10"/>
<path d="M141.68 189.551L118.1 189.941V172.611L141.68 173.301V189.551Z" stroke="#A8AAAF" stroke-width="0.5" stroke-miterlimit="10"/>
<path d="M162.5 189.213L141.68 189.553V173.303L162.5 173.913V189.213Z" stroke="#A8AAAF" stroke-width="0.5" stroke-miterlimit="10"/>
<path d="M181.02 188.912L162.5 189.212V173.912L181.02 174.452V188.912Z" stroke="#A8AAAF" stroke-width="0.5" stroke-miterlimit="10"/>
<path d="M190.72 188.751L181.02 188.911V174.451L190.72 174.731" stroke="#A8AAAF" stroke-width="0.5" stroke-miterlimit="10"/>
<path d="M110.589 207.742L82.5488 209.482V190.522L110.589 190.062V207.742Z" stroke="#A8AAAF" stroke-width="0.5" stroke-miterlimit="10"/>
<path d="M135.08 206.222L110.59 207.742V190.062L135.08 189.662V206.222Z" stroke="#A8AAAF" stroke-width="0.5" stroke-miterlimit="10"/>
<path d="M156.66 204.882L135.08 206.222V189.662L156.66 189.312V204.882Z" stroke="#A8AAAF" stroke-width="0.5" stroke-miterlimit="10"/>
<path d="M175.808 203.692L156.658 204.882V189.312L175.808 188.992V203.692Z" stroke="#A8AAAF" stroke-width="0.5" stroke-miterlimit="10"/>
<path d="M190.719 202.762L175.809 203.682V188.992L190.719 188.752" stroke="#A8AAAF" stroke-width="0.5" stroke-miterlimit="10"/>
<path d="M78.459 209.732L97.049 208.572V226.872L78.459 228.872" stroke="#A8AAAF" stroke-width="0.5" stroke-miterlimit="10"/>
<path d="M123.229 224.051L97.0586 226.871V208.581L123.229 206.951V224.051Z" stroke="#A8AAAF" stroke-width="0.5" stroke-miterlimit="10"/>
<path d="M146.199 221.571L123.229 224.051V206.951L146.199 205.531V221.571Z" stroke="#A8AAAF" stroke-width="0.5" stroke-miterlimit="10"/>
<path d="M166.509 219.392L146.199 221.572V205.532L166.509 204.262V219.392Z" stroke="#A8AAAF" stroke-width="0.5" stroke-miterlimit="10"/>
<path d="M184.6 217.443L166.51 219.393V204.263L184.6 203.143V217.443Z" stroke="#A8AAAF" stroke-width="0.5" stroke-miterlimit="10"/>
<path d="M190.72 216.782L184.6 217.442V203.142L190.72 202.762" stroke="#A8AAAF" stroke-width="0.5" stroke-miterlimit="10"/>
<path d="M115.879 242.272L88.6191 246.452V227.782L115.879 224.842V242.272Z" stroke="#A8AAAF" stroke-width="0.5" stroke-miterlimit="10"/>
<path d="M139.719 238.611L115.879 242.271V224.841L139.719 222.271V238.611Z" stroke="#A8AAAF" stroke-width="0.5" stroke-miterlimit="10"/>
<path d="M160.769 235.392L139.719 238.612V222.272L160.769 220.002V235.392Z" stroke="#A8AAAF" stroke-width="0.5" stroke-miterlimit="10"/>
<path d="M179.47 232.522L160.77 235.392V220.002L179.47 217.992V232.522Z" stroke="#A8AAAF" stroke-width="0.5" stroke-miterlimit="10"/>
<path d="M190.719 230.801L179.469 232.521V217.991L190.719 216.781" stroke="#A8AAAF" stroke-width="0.5" stroke-miterlimit="10"/>
<path d="M78.459 248.022L103.569 244.172V262.152L78.459 267.152" stroke="#A8AAAF" stroke-width="0.5" stroke-miterlimit="10"/>
<path d="M128.928 257.111L103.568 262.161V244.161L128.928 240.271V257.111Z" stroke="#A8AAAF" stroke-width="0.5" stroke-miterlimit="10"/>
<path d="M151.22 252.672L128.93 257.112V240.272L151.22 236.852V252.672Z" stroke="#A8AAAF" stroke-width="0.5" stroke-miterlimit="10"/>
<path d="M170.969 248.742L151.219 252.672V236.852L170.969 233.822V248.742Z" stroke="#A8AAAF" stroke-width="0.5" stroke-miterlimit="10"/>
<path d="M188.589 245.233L170.969 248.743V233.823L188.589 231.123" stroke="#A8AAAF" stroke-width="0.5" stroke-miterlimit="10"/>
<path d="M188.59 231.123L190.72 230.803" stroke="#A8AAAF" stroke-width="0.5" stroke-miterlimit="10"/>
<path d="M190.72 244.803L188.59 245.233" stroke="#A8AAAF" stroke-width="0.5" stroke-miterlimit="10"/>
<path d="M78.459 190.591L82.549 190.531V209.471L78.459 209.731" stroke="#A8AAAF" stroke-width="0.5" stroke-miterlimit="10"/>
<path d="M78.459 228.871L88.619 227.781V246.311L78.459 247.871" stroke="#A8AAAF" stroke-width="0.5" stroke-miterlimit="10"/>
<path d="M316.52 25.6621L323.77 27.3721V259.962L316.52 261.532V25.6621Z" fill="#E9EAEB"/>
<path d="M316.519 261.532L190.719 245.132V51.3621L316.519 25.6621V261.532Z" fill="#DADBDE"/>
<path d="M316.52 97.0625L285.57 102.373V119.592L316.52 115.323" stroke="#A8AAAF" stroke-width="0.5" stroke-miterlimit="10"/>
<path d="M257.969 123.403L285.569 119.603V102.373L257.969 107.113V123.403Z" stroke="#A8AAAF" stroke-width="0.5" stroke-miterlimit="10"/>
<path d="M233.209 126.821L257.969 123.401V107.111L233.209 111.361V126.821Z" stroke="#A8AAAF" stroke-width="0.5" stroke-miterlimit="10"/>
<path d="M210.869 129.901L233.209 126.821V111.361L210.869 115.201V129.901Z" stroke="#A8AAAF" stroke-width="0.5" stroke-miterlimit="10"/>
<path d="M190.609 118.681V132.681L210.869 129.891V115.201L190.609 118.681Z" stroke="#A8AAAF" stroke-width="0.5" stroke-miterlimit="10"/>
<path d="M275.84 137.842L305.59 134.742V116.842L275.84 120.942V137.842Z" stroke="#A8AAAF" stroke-width="0.5" stroke-miterlimit="10"/>
<path d="M316.52 115.322L305.59 116.832V134.742L316.52 133.612" stroke="#A8AAAF" stroke-width="0.5" stroke-miterlimit="10"/>
<path d="M249.26 140.601L275.84 137.841V120.941L249.26 124.601V140.601Z" stroke="#A8AAAF" stroke-width="0.5" stroke-miterlimit="10"/>
<path d="M225.359 143.092L249.259 140.602V124.602L225.359 127.902V143.092Z" stroke="#A8AAAF" stroke-width="0.5" stroke-miterlimit="10"/>
<path d="M203.76 145.332L225.36 143.092V127.902L203.76 130.882V145.332Z" stroke="#A8AAAF" stroke-width="0.5" stroke-miterlimit="10"/>
<path d="M190.609 146.703L203.759 145.343V130.873L190.609 132.683" stroke="#A8AAAF" stroke-width="0.5" stroke-miterlimit="10"/>
<path d="M316.52 133.611L292.33 136.121V153.581L316.52 151.891" stroke="#A8AAAF" stroke-width="0.5" stroke-miterlimit="10"/>
<path d="M264.01 155.573L292.33 153.583V136.123L264.01 139.073V155.573Z" stroke="#A8AAAF" stroke-width="0.5" stroke-miterlimit="10"/>
<path d="M238.639 157.352L264.009 155.572V139.072L238.639 141.712V157.352Z" stroke="#A8AAAF" stroke-width="0.5" stroke-miterlimit="10"/>
<path d="M215.779 158.953L238.639 157.353V141.713L215.779 144.093V158.953Z" stroke="#A8AAAF" stroke-width="0.5" stroke-miterlimit="10"/>
<path d="M195.07 160.402L215.78 158.952V144.092L195.07 146.242V160.402Z" stroke="#A8AAAF" stroke-width="0.5" stroke-miterlimit="10"/>
<path d="M190.609 160.722L195.069 160.412V146.242L190.609 146.702" stroke="#A8AAAF" stroke-width="0.5" stroke-miterlimit="10"/>
<path d="M281.67 171.421L312.14 170.321V152.191L281.67 154.331V171.421Z" stroke="#A8AAAF" stroke-width="0.5" stroke-miterlimit="10"/>
<path d="M316.519 151.893L312.129 152.193V170.313L316.519 170.153" stroke="#A8AAAF" stroke-width="0.5" stroke-miterlimit="10"/>
<path d="M254.469 172.412L281.669 171.422V154.332L254.469 156.242V172.412Z" stroke="#A8AAAF" stroke-width="0.5" stroke-miterlimit="10"/>
<path d="M230.059 173.302L254.469 172.412V156.242L230.059 157.952V173.302Z" stroke="#A8AAAF" stroke-width="0.5" stroke-miterlimit="10"/>
<path d="M208.02 174.101L230.06 173.301V157.951L208.02 159.501V174.101Z" stroke="#A8AAAF" stroke-width="0.5" stroke-miterlimit="10"/>
<path d="M190.609 174.732L208.019 174.102V159.502L190.609 160.722" stroke="#A8AAAF" stroke-width="0.5" stroke-miterlimit="10"/>
<path d="M273.379 188.542L302.839 188.472V170.652L273.379 171.722V188.542Z" stroke="#A8AAAF" stroke-width="0.5" stroke-miterlimit="10"/>
<path d="M316.52 170.152L302.83 170.652V188.472L316.52 188.442" stroke="#A8AAAF" stroke-width="0.5" stroke-miterlimit="10"/>
<path d="M247.049 188.613L273.379 188.543V171.723L247.049 172.683V188.613Z" stroke="#A8AAAF" stroke-width="0.5" stroke-miterlimit="10"/>
<path d="M223.369 188.672L247.049 188.612V172.682L223.369 173.542V188.672Z" stroke="#A8AAAF" stroke-width="0.5" stroke-miterlimit="10"/>
<path d="M201.959 188.723L223.369 188.673V173.543L201.959 174.323V188.723Z" stroke="#A8AAAF" stroke-width="0.5" stroke-miterlimit="10"/>
<path d="M190.609 188.752L201.959 188.722V174.322L190.609 174.732" stroke="#A8AAAF" stroke-width="0.5" stroke-miterlimit="10"/>
<path d="M281.67 205.621L312.14 206.571V188.441L281.67 188.521V205.621Z" stroke="#A8AAAF" stroke-width="0.5" stroke-miterlimit="10"/>
<path d="M254.469 204.761L281.669 205.621V188.521L254.469 188.591V204.761Z" stroke="#A8AAAF" stroke-width="0.5" stroke-miterlimit="10"/>
<path d="M230.059 204.002L254.469 204.762V188.592L230.059 188.652V204.002Z" stroke="#A8AAAF" stroke-width="0.5" stroke-miterlimit="10"/>
<path d="M208.02 203.312L230.06 204.002V188.652L208.02 188.702V203.312Z" stroke="#A8AAAF" stroke-width="0.5" stroke-miterlimit="10"/>
<path d="M190.609 202.763L208.019 203.303V188.713L190.609 188.753" stroke="#A8AAAF" stroke-width="0.5" stroke-miterlimit="10"/>
<path d="M316.519 206.702L296.459 206.072V223.682L316.519 224.982" stroke="#A8AAAF" stroke-width="0.5" stroke-miterlimit="10"/>
<path d="M267.689 221.802L296.459 223.682V206.082L267.689 205.182V221.802Z" stroke="#A8AAAF" stroke-width="0.5" stroke-miterlimit="10"/>
<path d="M241.949 220.123L267.689 221.803V205.183L241.949 204.373V220.123Z" stroke="#A8AAAF" stroke-width="0.5" stroke-miterlimit="10"/>
<path d="M218.77 218.613L241.95 220.123V204.373L218.77 203.643V218.613Z" stroke="#A8AAAF" stroke-width="0.5" stroke-miterlimit="10"/>
<path d="M197.779 217.242L218.769 218.612V203.642L197.779 202.992V217.242Z" stroke="#A8AAAF" stroke-width="0.5" stroke-miterlimit="10"/>
<path d="M190.609 216.782L197.779 217.242V202.982L190.609 202.762" stroke="#A8AAAF" stroke-width="0.5" stroke-miterlimit="10"/>
<path d="M275.84 239.232L305.59 242.182V224.272L275.84 222.332V239.232Z" stroke="#A8AAAF" stroke-width="0.5" stroke-miterlimit="10"/>
<path d="M249.26 236.602L275.84 239.232V222.332L249.26 220.602V236.602Z" stroke="#A8AAAF" stroke-width="0.5" stroke-miterlimit="10"/>
<path d="M225.359 234.233L249.259 236.603V220.603L225.359 219.043V234.233Z" stroke="#A8AAAF" stroke-width="0.5" stroke-miterlimit="10"/>
<path d="M203.76 232.093L225.36 234.233V219.043L203.76 217.633V232.093Z" stroke="#A8AAAF" stroke-width="0.5" stroke-miterlimit="10"/>
<path d="M190.609 230.801L203.759 232.101V217.631L190.609 216.781" stroke="#A8AAAF" stroke-width="0.5" stroke-miterlimit="10"/>
<path d="M316.519 243.272L289.359 240.582V257.922L316.519 261.532" stroke="#A8AAAF" stroke-width="0.5" stroke-miterlimit="10"/>
<path d="M261.359 254.213L289.359 257.933V240.573L261.359 237.803V254.213Z" stroke="#A8AAAF" stroke-width="0.5" stroke-miterlimit="10"/>
<path d="M236.25 250.872L261.36 254.212V237.802L236.25 235.312V250.872Z" stroke="#A8AAAF" stroke-width="0.5" stroke-miterlimit="10"/>
<path d="M213.619 247.862L236.249 250.872V235.312L213.619 233.072V247.862Z" stroke="#A8AAAF" stroke-width="0.5" stroke-miterlimit="10"/>
<path d="M193.109 245.143L213.619 247.863V233.073L193.109 231.043V245.143Z" stroke="#A8AAAF" stroke-width="0.5" stroke-miterlimit="10"/>
<path d="M190.609 244.803L193.119 245.143V231.043L190.609 230.803" stroke="#A8AAAF" stroke-width="0.5" stroke-miterlimit="10"/>
<path d="M316.519 188.441L312.139 188.451V206.571L316.519 206.701" stroke="#A8AAAF" stroke-width="0.5" stroke-miterlimit="10"/>
<path d="M316.52 224.981L305.59 224.271V242.041L316.52 243.121" stroke="#A8AAAF" stroke-width="0.5" stroke-miterlimit="10"/>
<path d="M315.06 101.622V115.352L297.5 111.152L80.5 114.352V101.022L195.4 72.4316L315.06 101.622Z" fill="#E9EAEB"/>
<path d="M315.06 115.352L190.3 132.452L80.5 114.352L196.07 88.502L297.5 111.152L315.06 115.352Z" fill="#A8AAAF"/>
<path d="M212 88.4021L197.51 85.0121V76.4121L212 79.8021V88.4021Z" fill="#A8AAAF"/>
<path d="M228.64 92.3025L214.16 88.9125V80.3125L228.64 83.7025V92.3025Z" fill="#A8AAAF"/>
<path d="M245.291 96.2009L230.801 92.8109V84.2109L245.291 87.6009V96.2009Z" fill="#A8AAAF"/>
<path d="M261.929 100.101L247.439 96.7113V88.1113L261.929 91.5013V100.101Z" fill="#A8AAAF"/>
<path d="M278.57 104.012L264.09 100.612V92.0117L278.57 95.4117V104.012Z" fill="#A8AAAF"/>
<path d="M295.22 107.912L280.73 104.512V95.9121L295.22 99.3121V107.912Z" fill="#A8AAAF"/>
<path d="M311.861 111.812L297.381 108.412V99.8125L311.861 103.213V111.812Z" fill="#A8AAAF"/>
<path d="M91.9492 116.532L197.649 92.832L309.559 116.842V127.342L197.189 106.222L91.9492 127.902V116.532Z" fill="#337975"/>
<path d="M91.9492 127.903L190.719 141.133L309.559 127.343L197.189 106.223L91.9492 127.903Z" fill="#74DDD7"/>
</svg>
