<svg width="391" height="285" viewBox="0 0 391 285" fill="none" xmlns="http://www.w3.org/2000/svg">
<path d="M199.57 245.472L314.87 272.542V51.7422L199.57 74.2722V245.472Z" fill="#D3D4D7"/>
<path d="M314.871 272.542L322.201 270.542V53.7422L314.871 51.7422V272.542Z" fill="#E9EAEB"/>
<path d="M149.399 15.873L135.799 39.473H136.739L124.999 60.143L125.669 60.943L115.539 79.473L116.339 80.543L106.069 98.143L107.269 98.673L97.6692 115.203L98.4692 116.273L88.7992 132.093L89.6492 133.043L80.7992 148.093L81.7492 148.843L73.2992 163.243L73.8992 163.893L66.0992 177.493L66.7992 178.293L59.1992 191.393L59.6992 192.593L192.169 181.523L280.599 50.003L149.399 15.873Z" fill="#A8AAAF"/>
<path d="M151.22 45.1516L135.5 41.6716L136.38 40.1016L152.1 43.5816L151.22 45.1516Z" fill="#D3D4D7"/>
<path d="M137.62 64.7019L124.92 62.5019L125.79 60.9219L138.49 63.1219L137.62 64.7019Z" fill="#D3D4D7"/>
<path d="M128.539 83.9827L115.369 82.3027L116.239 80.7227L129.399 82.4127L128.539 83.9827Z" fill="#D3D4D7"/>
<path d="M119.521 101.832L106.061 100.932L106.921 99.3516L120.381 100.252L119.521 101.832Z" fill="#D3D4D7"/>
<path d="M111 118.883L97.2402 118.333L98.1702 116.803L111.87 117.313L111 118.883Z" fill="#D3D4D7"/>
<path d="M99.559 135.663L88.459 135.213L89.379 133.643L100.419 134.083L99.559 135.663Z" fill="#D3D4D7"/>
<path d="M95.6892 151.152L80.6992 150.682L81.5692 149.102L96.5592 149.572L95.6892 151.152Z" fill="#D3D4D7"/>
<path d="M86.5492 166.012L72.9492 165.732L73.8192 164.152L87.4192 164.442L86.5492 166.012Z" fill="#D3D4D7"/>
<path d="M76.9797 180.511L65.6797 180.231L66.6197 178.611L77.8397 178.931L76.9797 180.511Z" fill="#D3D4D7"/>
<path d="M156.999 23.7422L72.9492 185.492L193.419 180.432L276.199 53.7422L156.999 23.7422Z" fill="#D3D4D7"/>
<path d="M194.5 178.542H188.27L280.15 44.832L285.51 46.462L194.5 178.542Z" fill="#E9EAEB"/>
<path d="M80.1402 186.242H73.9102L166.34 12.1016L171.7 13.7416L80.1402 186.242Z" fill="#E9EAEB"/>
<path d="M108.101 183.941H101.871L195.191 19.7012L200.551 21.3412L108.101 183.941Z" fill="#E9EAEB"/>
<path d="M132.08 182.342H125.85L220.57 26.082L225.93 27.712L132.08 182.342Z" fill="#E9EAEB"/>
<path d="M154.781 180.511H148.551L242.591 32.9707L247.951 34.6007L154.781 180.511Z" fill="#E9EAEB"/>
<path d="M176.48 180.142H170.25L262.45 38.4316L267.81 40.0616L176.48 180.142Z" fill="#E9EAEB"/>
<path d="M76.7998 271.841L71.7598 270.641V185.541L76.7998 186.741V271.841Z" fill="#D3D4D7"/>
<path d="M71.7598 185.542L202.6 179.672V246.142L76.7998 271.842V186.742L71.7598 185.542Z" fill="#DADBDE"/>
<path d="M95.3998 245.302L77.8398 240.542V230.342L95.3998 234.542L312.4 231.342V241.142L197.5 269.722L95.3998 245.302Z" fill="#E9EAEB"/>
<path d="M77.8398 230.342L205.6 213.742L312.4 231.342L196.84 257.192L95.3998 234.542L77.8398 230.342Z" fill="#337975"/>
<path d="M119.76 110.143L126.75 117.443L244.77 121.643L234.38 114.943L119.76 110.143Z" fill="#E9EAEB"/>
<path d="M117.619 114.023L124.499 121.143L126.749 117.443L119.759 110.143L117.619 114.023Z" fill="#E9EAEB"/>
<path d="M244.77 121.643L126.75 117.443L124.5 121.143L244.06 125.103L244.77 121.643Z" fill="#CECECE"/>
<path d="M151.479 48.873L158.319 57.123L273.369 74.583L263.759 69.273L151.479 48.873Z" fill="#E9EAEB"/>
<path d="M149.199 52.793L155.669 60.923L158.319 57.123L151.479 48.873L149.199 52.793Z" fill="#E9EAEB"/>
<path d="M273.37 74.583L158.32 57.123L155.67 60.923L272.68 77.673L273.37 74.583Z" fill="#CECECE"/>
<path d="M86.4512 174.112L94.5812 180.902L212.611 176.812L201.781 170.852L86.4512 174.112Z" fill="#E9EAEB"/>
<path d="M84.4902 177.701L92.5302 184.571L94.5802 180.901L86.4502 174.111L84.4902 177.701Z" fill="#E9EAEB"/>
<path d="M212.609 176.812L94.5793 180.902L92.5293 184.572L212.109 179.752L212.609 176.812Z" fill="#CECECE"/>
<path d="M179.88 205.242C179.88 205.242 178.47 204.642 178.94 204.092C179.41 203.542 181.41 201.852 182.34 202.592C183.27 203.332 184.74 203.182 185.87 203.112C187 203.042 188.94 201.112 190.34 201.342C191.74 201.572 192.54 200.932 194.34 202.052C196.14 203.172 197.14 199.392 198.61 200.262C200.08 201.132 203.01 203.252 203.61 202.052C204.21 200.852 205.74 200.432 206.68 201.002C207.62 201.572 212.41 202.812 212.95 203.652C213.49 204.492 216.15 204.432 217.35 204.312C218.55 204.192 222.48 204.012 223.48 204.612C224.48 205.212 226.01 206.522 228.55 206.272C231.09 206.022 232.68 204.272 234.75 205.722C236.82 207.172 240.35 207.922 241.75 208.532C243.15 209.142 242.68 207.192 246.48 208.532C250.28 209.872 248.68 209.692 252.55 210.472C256.42 211.252 258.68 209.792 260.55 211.182C262.42 212.572 269.78 212.052 271.06 213.292C272.34 214.532 277.28 214.862 278.01 214.952C278.74 215.042 281.74 213.442 283.81 213.882C285.88 214.322 286.96 215.192 288.78 215.562C290.6 215.932 293.74 214.072 295.91 214.962C298.08 215.852 301 213.962 302.17 216.002C303.34 218.042 302.54 219.972 304.94 220.022C307.34 220.072 307.87 223.282 307.34 224.152C306.81 225.022 310.12 228.592 308.67 229.322C307.22 230.052 304.44 229.552 303.12 230.342C301.8 231.132 299.59 232.232 297.77 232.822C295.95 233.412 293.64 232.822 291.66 232.022C289.68 231.222 289.04 231.732 287.73 232.602C286.42 233.472 284.48 233.552 283.81 233.182C283.14 232.812 179.41 210.822 179.41 210.822L179.88 205.232V205.242Z" fill="#74DDD7" stroke="#337975" stroke-width="0.25" stroke-miterlimit="10"/>
<path d="M290.52 221.092L180.48 203.752L173.49 204.452L285.51 222.402V234.892L290.52 233.572V221.092Z" fill="#F8F8F8"/>
<path d="M285.51 222.401L173.49 204.451V214.181L285.51 234.891V222.401Z" fill="#E9EAEB"/>
<path d="M304.311 173.712L349.421 168.742V186.442L307.061 192.182L304.311 173.712Z" fill="#B7D3F0"/>
<path d="M143.971 223.793L122.811 213.703C122.811 213.703 124.011 211.953 124.911 212.333C125.811 212.713 126.311 212.713 127.411 211.183C128.511 209.653 135.311 212.273 136.411 213.073C137.511 213.873 140.111 211.393 141.111 211.153C142.111 210.913 143.211 211.833 143.971 212.523C144.731 213.213 148.911 213.363 148.921 212.273C148.921 212.273 147.531 211.653 147.991 211.083C148.451 210.513 150.421 208.753 151.351 209.523C152.281 210.293 153.721 210.143 154.841 210.063C155.961 209.983 157.871 207.983 159.251 208.223C160.631 208.463 161.421 207.793 163.201 208.963C164.981 210.133 165.961 206.193 167.411 207.103C168.861 208.013 171.751 210.213 172.351 208.963C172.951 207.713 174.461 207.273 175.381 207.873C176.301 208.473 181.041 209.753 181.571 210.623C182.101 211.493 184.731 211.433 185.911 211.313C187.091 211.193 190.981 211.003 191.961 211.623C192.941 212.243 194.461 213.613 196.961 213.343C199.461 213.073 201.041 211.263 203.081 212.773C205.121 214.283 208.611 215.063 209.991 215.693C211.371 216.323 210.911 214.303 214.661 215.693C218.411 217.083 216.831 216.903 220.651 217.713C224.471 218.523 226.701 217.013 228.551 218.443C230.401 219.873 237.661 219.353 238.931 220.643C240.201 221.933 245.071 222.273 245.791 222.363C246.511 222.453 249.471 220.793 251.511 221.243C253.551 221.693 254.621 222.603 256.421 222.983C258.221 223.363 261.311 221.433 263.451 222.363C265.591 223.293 268.471 221.323 269.631 223.443C270.791 225.563 272.211 226.313 274.581 226.373C276.951 226.433 280.661 228.863 280.131 229.773C279.601 230.683 279.921 235.433 278.481 236.193C277.041 236.953 272.581 237.073 271.281 237.893C269.981 238.713 265.881 238.113 264.091 238.733C262.301 239.353 261.211 240.943 259.251 240.113C257.291 239.283 256.671 239.813 255.371 240.723C254.071 241.633 252.401 242.583 251.671 242.413C250.721 242.193 247.621 244.813 247.021 243.723C246.421 242.633 244.591 242.853 243.461 243.283C242.331 243.713 243.921 244.033 241.521 243.983C239.121 243.933 236.921 242.623 235.621 243.983C234.321 245.343 234.221 246.333 232.521 245.463C230.821 244.593 227.221 245.793 227.221 245.793L143.981 223.763L143.971 223.793Z" fill="#74DDD7" stroke="#337975" stroke-width="0.25" stroke-miterlimit="10"/>
<path d="M236.889 233.593L123.479 212.223L117.619 212.603L231.879 234.903V247.383L236.889 246.073V233.593Z" fill="#F8F8F8"/>
<path d="M231.879 234.904L117.619 212.604V222.344L231.879 247.384V234.904Z" fill="#E9EAEB"/>
<path d="M307.068 192.181C308.297 191.998 308.677 187.713 307.916 182.611C307.155 177.509 305.542 173.522 304.313 173.705C303.084 173.889 302.705 178.173 303.465 183.275C304.226 188.377 305.839 192.364 307.068 192.181Z" fill="#4096E8"/>
<path d="M303.039 182.412C303.735 182.412 304.299 181.705 304.299 180.832C304.299 179.959 303.735 179.252 303.039 179.252C302.343 179.252 301.779 179.959 301.779 180.832C301.779 181.705 302.343 182.412 303.039 182.412Z" fill="#A3E8E4" stroke="#337975" stroke-width="0.25" stroke-miterlimit="10"/>
<path d="M305.719 189.303C306.327 189.303 306.819 188.219 306.819 186.883C306.819 185.546 306.327 184.463 305.719 184.463C305.112 184.463 304.619 185.546 304.619 186.883C304.619 188.219 305.112 189.303 305.719 189.303Z" fill="#A3E8E4" stroke="#337975" stroke-width="0.25" stroke-miterlimit="10"/>
<path d="M300.07 188.203C301.716 188.203 303.05 187.366 303.05 186.333C303.05 185.3 301.716 184.463 300.07 184.463C298.424 184.463 297.09 185.3 297.09 186.333C297.09 187.366 298.424 188.203 300.07 188.203Z" fill="#A3E8E4" stroke="#337975" stroke-width="0.25" stroke-miterlimit="10"/>
<path d="M300.68 184.702C301.984 184.702 303.04 183.838 303.04 182.772C303.04 181.706 301.984 180.842 300.68 180.842C299.377 180.842 298.32 181.706 298.32 182.772C298.32 183.838 299.377 184.702 300.68 184.702Z" fill="#A3E8E4" stroke="#337975" stroke-width="0.25" stroke-miterlimit="10"/>
<path d="M294.571 196.972C295.963 196.972 297.091 195.843 297.091 194.452C297.091 193.06 295.963 191.932 294.571 191.932C293.179 191.932 292.051 193.06 292.051 194.452C292.051 195.843 293.179 196.972 294.571 196.972Z" fill="#A3E8E4" stroke="#337975" stroke-width="0.25" stroke-miterlimit="10"/>
<path d="M306.529 183.612C306.993 183.612 307.369 183.343 307.369 183.012C307.369 182.681 306.993 182.412 306.529 182.412C306.066 182.412 305.689 182.681 305.689 183.012C305.689 183.343 306.066 183.612 306.529 183.612Z" fill="#A3E8E4" stroke="#337975" stroke-width="0.25" stroke-miterlimit="10"/>
<path d="M296.26 185.372C297.194 185.372 297.95 184.71 297.95 183.892C297.95 183.075 297.194 182.412 296.26 182.412C295.327 182.412 294.57 183.075 294.57 183.892C294.57 184.71 295.327 185.372 296.26 185.372Z" fill="#A3E8E4" stroke="#337975" stroke-width="0.25" stroke-miterlimit="10"/>
<path d="M302.32 191.503C302.911 191.503 303.39 191.118 303.39 190.643C303.39 190.168 302.911 189.783 302.32 189.783C301.729 189.783 301.25 190.168 301.25 190.643C301.25 191.118 301.729 191.503 302.32 191.503Z" fill="#A3E8E4" stroke="#337975" stroke-width="0.25" stroke-miterlimit="10"/>
<path d="M302.049 189.473C302.927 189.473 303.639 189.133 303.639 188.713C303.639 188.293 302.927 187.953 302.049 187.953C301.171 187.953 300.459 188.293 300.459 188.713C300.459 189.133 301.171 189.473 302.049 189.473Z" fill="#A3E8E4" stroke="#337975" stroke-width="0.25" stroke-miterlimit="10"/>
<path d="M298.26 190.643C298.63 190.643 298.93 190.097 298.93 189.423C298.93 188.749 298.63 188.203 298.26 188.203C297.89 188.203 297.59 188.749 297.59 189.423C297.59 190.097 297.89 190.643 298.26 190.643Z" fill="#A3E8E4" stroke="#337975" stroke-width="0.25" stroke-miterlimit="10"/>
<path d="M300.43 190.953C300.888 190.953 301.26 190.581 301.26 190.123C301.26 189.665 300.888 189.293 300.43 189.293C299.971 189.293 299.6 189.665 299.6 190.123C299.6 190.581 299.971 190.953 300.43 190.953Z" fill="#A3E8E4" stroke="#337975" stroke-width="0.25" stroke-miterlimit="10"/>
<path d="M303.609 186.883C303.924 186.883 304.179 186.395 304.179 185.793C304.179 185.191 303.924 184.703 303.609 184.703C303.294 184.703 303.039 185.191 303.039 185.793C303.039 186.395 303.294 186.883 303.609 186.883Z" fill="#A3E8E4" stroke="#337975" stroke-width="0.25" stroke-miterlimit="10"/>
<path d="M305.25 191.923C305.841 191.923 306.32 191.444 306.32 190.853C306.32 190.262 305.841 189.783 305.25 189.783C304.659 189.783 304.18 190.262 304.18 190.853C304.18 191.444 304.659 191.923 305.25 191.923Z" fill="#A3E8E4" stroke="#337975" stroke-width="0.25" stroke-miterlimit="10"/>
<path d="M302.2 194.072C302.725 194.072 303.15 193.593 303.15 193.002C303.15 192.411 302.725 191.932 302.2 191.932C301.675 191.932 301.25 192.411 301.25 193.002C301.25 193.593 301.675 194.072 302.2 194.072Z" fill="#A3E8E4" stroke="#337975" stroke-width="0.25" stroke-miterlimit="10"/>
<path d="M299.05 194.612C300.132 194.612 301.01 193.86 301.01 192.932C301.01 192.004 300.132 191.252 299.05 191.252C297.967 191.252 297.09 192.004 297.09 192.932C297.09 193.86 297.967 194.612 299.05 194.612Z" fill="#A3E8E4" stroke="#337975" stroke-width="0.25" stroke-miterlimit="10"/>
<path d="M295.25 190.943C295.626 190.943 295.93 190.759 295.93 190.533C295.93 190.307 295.626 190.123 295.25 190.123C294.875 190.123 294.57 190.307 294.57 190.533C294.57 190.759 294.875 190.943 295.25 190.943Z" fill="#A3E8E4" stroke="#337975" stroke-width="0.25" stroke-miterlimit="10"/>
<path d="M294.86 188.683C295.247 188.683 295.56 188.356 295.56 187.953C295.56 187.549 295.247 187.223 294.86 187.223C294.474 187.223 294.16 187.549 294.16 187.953C294.16 188.356 294.474 188.683 294.86 188.683Z" fill="#A3E8E4" stroke="#337975" stroke-width="0.25" stroke-miterlimit="10"/>
<path d="M293.87 190.542C294.257 190.542 294.57 190.125 294.57 189.612C294.57 189.098 294.257 188.682 293.87 188.682C293.483 188.682 293.17 189.098 293.17 189.612C293.17 190.125 293.483 190.542 293.87 190.542Z" fill="#A3E8E4" stroke="#337975" stroke-width="0.25" stroke-miterlimit="10"/>
<path d="M293.299 192.942C293.587 192.942 293.819 192.62 293.819 192.222C293.819 191.824 293.587 191.502 293.299 191.502C293.012 191.502 292.779 191.824 292.779 192.222C292.779 192.62 293.012 192.942 293.299 192.942Z" fill="#A3E8E4" stroke="#337975" stroke-width="0.25" stroke-miterlimit="10"/>
<path d="M290.97 191.933C291.241 191.933 291.46 191.714 291.46 191.443C291.46 191.172 291.241 190.953 290.97 190.953C290.7 190.953 290.48 191.172 290.48 191.443C290.48 191.714 290.7 191.933 290.97 191.933Z" fill="#A3E8E4" stroke="#337975" stroke-width="0.25" stroke-miterlimit="10"/>
<path d="M296.51 191.693C296.83 191.693 297.09 191.434 297.09 191.113C297.09 190.793 296.83 190.533 296.51 190.533C296.189 190.533 295.93 190.793 295.93 191.113C295.93 191.434 296.189 191.693 296.51 191.693Z" fill="#A3E8E4" stroke="#337975" stroke-width="0.25" stroke-miterlimit="10"/>
<path d="M295.9 189.943C296.635 189.943 297.23 189.348 297.23 188.613C297.23 187.879 296.635 187.283 295.9 187.283C295.166 187.283 294.57 187.879 294.57 188.613C294.57 189.348 295.166 189.943 295.9 189.943Z" fill="#A3E8E4" stroke="#337975" stroke-width="0.25" stroke-miterlimit="10"/>
<path d="M295.9 186.913C296.259 186.913 296.55 186.42 296.55 185.813C296.55 185.205 296.259 184.713 295.9 184.713C295.541 184.713 295.25 185.205 295.25 185.813C295.25 186.42 295.541 186.913 295.9 186.913Z" fill="#A3E8E4" stroke="#337975" stroke-width="0.25" stroke-miterlimit="10"/>
<path d="M293.51 186.232C293.698 186.232 293.85 186.138 293.85 186.022C293.85 185.907 293.698 185.812 293.51 185.812C293.322 185.812 293.17 185.907 293.17 186.022C293.17 186.138 293.322 186.232 293.51 186.232Z" fill="#A3E8E4" stroke="#337975" stroke-width="0.25" stroke-miterlimit="10"/>
<path d="M289.9 190.643C290.729 190.643 291.4 190.343 291.4 189.973C291.4 189.603 290.729 189.303 289.9 189.303C289.072 189.303 288.4 189.603 288.4 189.973C288.4 190.343 289.072 190.643 289.9 190.643Z" fill="#A3E8E4" stroke="#337975" stroke-width="0.25" stroke-miterlimit="10"/>
<path d="M291.371 189.041C291.592 189.041 291.771 188.365 291.771 187.531C291.771 186.698 291.592 186.021 291.371 186.021C291.15 186.021 290.971 186.698 290.971 187.531C290.971 188.365 291.15 189.041 291.371 189.041Z" fill="#A3E8E4" stroke="#337975" stroke-width="0.25" stroke-miterlimit="10"/>
<path d="M292.38 190.762C292.822 190.762 293.18 190.502 293.18 190.182C293.18 189.861 292.822 189.602 292.38 189.602C291.938 189.602 291.58 189.861 291.58 190.182C291.58 190.502 291.938 190.762 292.38 190.762Z" fill="#A3E8E4" stroke="#337975" stroke-width="0.25" stroke-miterlimit="10"/>
<path d="M290.591 195.042C291.391 195.042 292.041 194.585 292.041 194.022C292.041 193.459 291.391 193.002 290.591 193.002C289.79 193.002 289.141 193.459 289.141 194.022C289.141 194.585 289.79 195.042 290.591 195.042Z" fill="#A3E8E4" stroke="#337975" stroke-width="0.25" stroke-miterlimit="10"/>
<path d="M286.17 195.783C286.761 195.783 287.24 195.397 287.24 194.923C287.24 194.448 286.761 194.062 286.17 194.062C285.579 194.062 285.1 194.448 285.1 194.923C285.1 195.397 285.579 195.783 286.17 195.783Z" fill="#A3E8E4" stroke="#337975" stroke-width="0.25" stroke-miterlimit="10"/>
<path d="M286.95 192.943C287.381 192.943 287.73 192.781 287.73 192.583C287.73 192.384 287.381 192.223 286.95 192.223C286.519 192.223 286.17 192.384 286.17 192.583C286.17 192.781 286.519 192.943 286.95 192.943Z" fill="#A3E8E4" stroke="#337975" stroke-width="0.25" stroke-miterlimit="10"/>
<path d="M285.56 186.603C286.051 186.603 286.45 186.276 286.45 185.873C286.45 185.469 286.051 185.143 285.56 185.143C285.068 185.143 284.67 185.469 284.67 185.873C284.67 186.276 285.068 186.603 285.56 186.603Z" fill="#A3E8E4" stroke="#337975" stroke-width="0.25" stroke-miterlimit="10"/>
<path d="M287.769 181.523C288.222 181.523 288.589 181.304 288.589 181.033C288.589 180.762 288.222 180.543 287.769 180.543C287.316 180.543 286.949 180.762 286.949 181.033C286.949 181.304 287.316 181.523 287.769 181.523Z" fill="#A3E8E4" stroke="#337975" stroke-width="0.25" stroke-miterlimit="10"/>
<path d="M290.19 178.642C290.351 178.642 290.48 178.369 290.48 178.032C290.48 177.695 290.351 177.422 290.19 177.422C290.03 177.422 289.9 177.695 289.9 178.032C289.9 178.369 290.03 178.642 290.19 178.642Z" fill="#A3E8E4" stroke="#337975" stroke-width="0.25" stroke-miterlimit="10"/>
<path d="M292.53 181.783C292.949 181.783 293.29 181.505 293.29 181.163C293.29 180.821 292.949 180.543 292.53 180.543C292.11 180.543 291.77 180.821 291.77 181.163C291.77 181.505 292.11 181.783 292.53 181.783Z" fill="#A3E8E4" stroke="#337975" stroke-width="0.25" stroke-miterlimit="10"/>
<path d="M297.11 173.991C297.441 173.991 297.71 173.718 297.71 173.381C297.71 173.045 297.441 172.771 297.11 172.771C296.778 172.771 296.51 173.045 296.51 173.381C296.51 173.718 296.778 173.991 297.11 173.991Z" fill="#A3E8E4" stroke="#337975" stroke-width="0.25" stroke-miterlimit="10"/>
<path d="M297.74 179.693C298.093 179.693 298.38 179.527 298.38 179.323C298.38 179.119 298.093 178.953 297.74 178.953C297.386 178.953 297.1 179.119 297.1 179.323C297.1 179.527 297.386 179.693 297.74 179.693Z" fill="#A3E8E4" stroke="#337975" stroke-width="0.25" stroke-miterlimit="10"/>
<path d="M306.08 181.162C306.538 181.162 306.91 180.79 306.91 180.332C306.91 179.874 306.538 179.502 306.08 179.502C305.622 179.502 305.25 179.874 305.25 180.332C305.25 180.79 305.622 181.162 306.08 181.162Z" fill="#A3E8E4" stroke="#337975" stroke-width="0.25" stroke-miterlimit="10"/>
<path d="M304.151 183.612C304.758 183.612 305.251 183.343 305.251 183.012C305.251 182.681 304.758 182.412 304.151 182.412C303.543 182.412 303.051 182.681 303.051 183.012C303.051 183.343 303.543 183.612 304.151 183.612Z" fill="#A3E8E4" stroke="#337975" stroke-width="0.25" stroke-miterlimit="10"/>
<path d="M307.829 186.603C308.083 186.603 308.289 186.33 308.289 185.993C308.289 185.656 308.083 185.383 307.829 185.383C307.575 185.383 307.369 185.656 307.369 185.993C307.369 186.33 307.575 186.603 307.829 186.603Z" fill="#A3E8E4" stroke="#337975" stroke-width="0.25" stroke-miterlimit="10"/>
<path d="M306.89 190.542C307.293 190.542 307.62 190.215 307.62 189.812C307.62 189.409 307.293 189.082 306.89 189.082C306.487 189.082 306.16 189.409 306.16 189.812C306.16 190.215 306.487 190.542 306.89 190.542Z" fill="#A3E8E4" stroke="#337975" stroke-width="0.25" stroke-miterlimit="10"/>
<path d="M287.67 202.272C289.835 202.272 291.59 201.448 291.59 200.432C291.59 199.416 289.835 198.592 287.67 198.592C285.505 198.592 283.75 199.416 283.75 200.432C283.75 201.448 285.505 202.272 287.67 202.272Z" fill="#A3E8E4" stroke="#337975" stroke-width="0.25" stroke-miterlimit="10"/>
<path d="M287.16 209.122C287.707 209.122 288.15 208.464 288.15 207.652C288.15 206.84 287.707 206.182 287.16 206.182C286.613 206.182 286.17 206.84 286.17 207.652C286.17 208.464 286.613 209.122 287.16 209.122Z" fill="#A3E8E4" stroke="#337975" stroke-width="0.25" stroke-miterlimit="10"/>
<path d="M282.769 207.673C283.31 207.673 283.749 206.956 283.749 206.073C283.749 205.189 283.31 204.473 282.769 204.473C282.228 204.473 281.789 205.189 281.789 206.073C281.789 206.956 282.228 207.673 282.769 207.673Z" fill="#A3E8E4" stroke="#337975" stroke-width="0.25" stroke-miterlimit="10"/>
<path d="M275.429 208.393C276.103 208.393 276.649 207.515 276.649 206.433C276.649 205.35 276.103 204.473 275.429 204.473C274.755 204.473 274.209 205.35 274.209 206.433C274.209 207.515 274.755 208.393 275.429 208.393Z" fill="#A3E8E4" stroke="#337975" stroke-width="0.25" stroke-miterlimit="10"/>
<path d="M270.17 203.982C271.186 203.982 272.01 203.597 272.01 203.122C272.01 202.647 271.186 202.262 270.17 202.262C269.154 202.262 268.33 202.647 268.33 203.122C268.33 203.597 269.154 203.982 270.17 203.982Z" fill="#A3E8E4" stroke="#337975" stroke-width="0.25" stroke-miterlimit="10"/>
<path d="M277.63 202.512C278.172 202.512 278.61 201.634 278.61 200.552C278.61 199.469 278.172 198.592 277.63 198.592C277.089 198.592 276.65 199.469 276.65 200.552C276.65 201.634 277.089 202.512 277.63 202.512Z" fill="#A3E8E4" stroke="#337975" stroke-width="0.25" stroke-miterlimit="10"/>
<path d="M277.02 196.523C277.225 196.523 277.39 196.358 277.39 196.153C277.39 195.949 277.225 195.783 277.02 195.783C276.816 195.783 276.65 195.949 276.65 196.153C276.65 196.358 276.816 196.523 277.02 196.523Z" fill="#A3E8E4" stroke="#337975" stroke-width="0.25" stroke-miterlimit="10"/>
<path d="M281.55 196.883C282.224 196.883 282.77 196.377 282.77 195.753C282.77 195.129 282.224 194.623 281.55 194.623C280.876 194.623 280.33 195.129 280.33 195.753C280.33 196.377 280.876 196.883 281.55 196.883Z" fill="#A3E8E4" stroke="#337975" stroke-width="0.25" stroke-miterlimit="10"/>
<path d="M282.529 203.122C282.938 203.122 283.269 202.11 283.269 200.862C283.269 199.613 282.938 198.602 282.529 198.602C282.12 198.602 281.789 199.613 281.789 200.862C281.789 202.11 282.12 203.122 282.529 203.122Z" fill="#A3E8E4" stroke="#337975" stroke-width="0.25" stroke-miterlimit="10"/>
<path d="M279.409 206.073C279.851 206.073 280.209 205.714 280.209 205.273C280.209 204.831 279.851 204.473 279.409 204.473C278.968 204.473 278.609 204.831 278.609 205.273C278.609 205.714 278.968 206.073 279.409 206.073Z" fill="#A3E8E4" stroke="#337975" stroke-width="0.25" stroke-miterlimit="10"/>
<path d="M271.11 208.062C271.629 208.062 272.05 207.641 272.05 207.122C272.05 206.602 271.629 206.182 271.11 206.182C270.591 206.182 270.17 206.602 270.17 207.122C270.17 207.641 270.591 208.062 271.11 208.062Z" fill="#A3E8E4" stroke="#337975" stroke-width="0.25" stroke-miterlimit="10"/>
<path d="M267.161 209.112C268 209.112 268.681 208.432 268.681 207.592C268.681 206.753 268 206.072 267.161 206.072C266.321 206.072 265.641 206.753 265.641 207.592C265.641 208.432 266.321 209.112 267.161 209.112Z" fill="#A3E8E4" stroke="#337975" stroke-width="0.25" stroke-miterlimit="10"/>
<path d="M271.45 199.333C272.163 199.333 272.74 198.804 272.74 198.153C272.74 197.501 272.163 196.973 271.45 196.973C270.738 196.973 270.16 197.501 270.16 198.153C270.16 198.804 270.738 199.333 271.45 199.333Z" fill="#A3E8E4" stroke="#337975" stroke-width="0.25" stroke-miterlimit="10"/>
<path d="M274.7 196.152C275.783 196.152 276.66 195.687 276.66 195.112C276.66 194.538 275.783 194.072 274.7 194.072C273.618 194.072 272.74 194.538 272.74 195.112C272.74 195.687 273.618 196.152 274.7 196.152Z" fill="#A3E8E4" stroke="#337975" stroke-width="0.25" stroke-miterlimit="10"/>
<path d="M280.36 190.271C280.885 190.271 281.31 189.806 281.31 189.231C281.31 188.657 280.885 188.191 280.36 188.191C279.835 188.191 279.41 188.657 279.41 189.231C279.41 189.806 279.835 190.271 280.36 190.271Z" fill="#A3E8E4" stroke="#337975" stroke-width="0.25" stroke-miterlimit="10"/>
<path d="M285.42 192.582C285.834 192.582 286.17 191.888 286.17 191.032C286.17 190.176 285.834 189.482 285.42 189.482C285.006 189.482 284.67 190.176 284.67 191.032C284.67 191.888 285.006 192.582 285.42 192.582Z" fill="#A3E8E4" stroke="#337975" stroke-width="0.25" stroke-miterlimit="10"/>
<path d="M280.95 192.632C281.281 192.632 281.55 192.363 281.55 192.032C281.55 191.7 281.281 191.432 280.95 191.432C280.618 191.432 280.35 191.7 280.35 192.032C280.35 192.363 280.618 192.632 280.95 192.632Z" fill="#A3E8E4" stroke="#337975" stroke-width="0.25" stroke-miterlimit="10"/>
<path d="M278.791 192.721C279.199 192.721 279.531 192.435 279.531 192.081C279.531 191.728 279.199 191.441 278.791 191.441C278.382 191.441 278.051 191.728 278.051 192.081C278.051 192.435 278.382 192.721 278.791 192.721Z" fill="#A3E8E4" stroke="#337975" stroke-width="0.25" stroke-miterlimit="10"/>
<path d="M276.33 192.032C276.656 192.032 276.92 191.767 276.92 191.442C276.92 191.116 276.656 190.852 276.33 190.852C276.004 190.852 275.74 191.116 275.74 191.442C275.74 191.767 276.004 192.032 276.33 192.032Z" fill="#A3E8E4" stroke="#337975" stroke-width="0.25" stroke-miterlimit="10"/>
<path d="M278.731 188.203C279.106 188.203 279.411 187.997 279.411 187.743C279.411 187.489 279.106 187.283 278.731 187.283C278.355 187.283 278.051 187.489 278.051 187.743C278.051 187.997 278.355 188.203 278.731 188.203Z" fill="#A3E8E4" stroke="#337975" stroke-width="0.25" stroke-miterlimit="10"/>
<path d="M280.701 186.853C280.966 186.853 281.181 186.616 281.181 186.323C281.181 186.03 280.966 185.793 280.701 185.793C280.436 185.793 280.221 186.03 280.221 186.323C280.221 186.616 280.436 186.853 280.701 186.853Z" fill="#A3E8E4" stroke="#337975" stroke-width="0.25" stroke-miterlimit="10"/>
<path d="M283.42 190.703C284.11 190.703 284.67 190.143 284.67 189.453C284.67 188.763 284.11 188.203 283.42 188.203C282.73 188.203 282.17 188.763 282.17 189.453C282.17 190.143 282.73 190.703 283.42 190.703Z" fill="#A3E8E4" stroke="#337975" stroke-width="0.25" stroke-miterlimit="10"/>
<path d="M283.91 194.102C284.33 194.102 284.67 193.762 284.67 193.342C284.67 192.922 284.33 192.582 283.91 192.582C283.491 192.582 283.15 192.922 283.15 193.342C283.15 193.762 283.491 194.102 283.91 194.102Z" fill="#A3E8E4" stroke="#337975" stroke-width="0.25" stroke-miterlimit="10"/>
<path d="M279.589 196.942C280.263 196.942 280.809 196.136 280.809 195.142C280.809 194.148 280.263 193.342 279.589 193.342C278.915 193.342 278.369 194.148 278.369 195.142C278.369 196.136 278.915 196.942 279.589 196.942Z" fill="#A3E8E4" stroke="#337975" stroke-width="0.25" stroke-miterlimit="10"/>
<path d="M280.2 199.152C280.807 199.152 281.3 198.928 281.3 198.652C281.3 198.376 280.807 198.152 280.2 198.152C279.592 198.152 279.1 198.376 279.1 198.652C279.1 198.928 279.592 199.152 280.2 199.152Z" fill="#A3E8E4" stroke="#337975" stroke-width="0.25" stroke-miterlimit="10"/>
<path d="M287.57 198.192C288.034 198.192 288.41 197.816 288.41 197.352C288.41 196.888 288.034 196.512 287.57 196.512C287.107 196.512 286.73 196.888 286.73 197.352C286.73 197.816 287.107 198.192 287.57 198.192Z" fill="#A3E8E4" stroke="#337975" stroke-width="0.25" stroke-miterlimit="10"/>
<path d="M286.42 204.473C286.972 204.473 287.42 204.115 287.42 203.673C287.42 203.231 286.972 202.873 286.42 202.873C285.868 202.873 285.42 203.231 285.42 203.673C285.42 204.115 285.868 204.473 286.42 204.473Z" fill="#A3E8E4" stroke="#337975" stroke-width="0.25" stroke-miterlimit="10"/>
<path d="M292.81 204.182C293.384 204.182 293.85 203.716 293.85 203.142C293.85 202.567 293.384 202.102 292.81 202.102C292.235 202.102 291.77 202.567 291.77 203.142C291.77 203.716 292.235 204.182 292.81 204.182Z" fill="#A3E8E4" stroke="#337975" stroke-width="0.25" stroke-miterlimit="10"/>
<path d="M291.849 199.703C292.766 199.703 293.509 199.072 293.509 198.293C293.509 197.514 292.766 196.883 291.849 196.883C290.933 196.883 290.189 197.514 290.189 198.293C290.189 199.072 290.933 199.703 291.849 199.703Z" fill="#A3E8E4" stroke="#337975" stroke-width="0.25" stroke-miterlimit="10"/>
<path d="M287.91 189.622C288.562 189.622 289.09 188.946 289.09 188.112C289.09 187.278 288.562 186.602 287.91 186.602C287.259 186.602 286.73 187.278 286.73 188.112C286.73 188.946 287.259 189.622 287.91 189.622Z" fill="#A3E8E4" stroke="#337975" stroke-width="0.25" stroke-miterlimit="10"/>
<path d="M273.531 193.343C274.58 193.343 275.431 192.546 275.431 191.563C275.431 190.58 274.58 189.783 273.531 189.783C272.482 189.783 271.631 190.58 271.631 191.563C271.631 192.546 272.482 193.343 273.531 193.343Z" fill="#A3E8E4" stroke="#337975" stroke-width="0.25" stroke-miterlimit="10"/>
<path d="M276.169 185.092C276.573 185.092 276.899 184.626 276.899 184.052C276.899 183.477 276.573 183.012 276.169 183.012C275.766 183.012 275.439 183.477 275.439 184.052C275.439 184.626 275.766 185.092 276.169 185.092Z" fill="#A3E8E4" stroke="#337975" stroke-width="0.25" stroke-miterlimit="10"/>
<path d="M277.02 190.763C277.898 190.763 278.61 189.984 278.61 189.023C278.61 188.062 277.898 187.283 277.02 187.283C276.142 187.283 275.43 188.062 275.43 189.023C275.43 189.984 276.142 190.763 277.02 190.763Z" fill="#A3E8E4" stroke="#337975" stroke-width="0.25" stroke-miterlimit="10"/>
<path d="M275.681 202.232C276.581 202.232 277.311 201.543 277.311 200.692C277.311 199.842 276.581 199.152 275.681 199.152C274.781 199.152 274.051 199.842 274.051 200.692C274.051 201.543 274.781 202.232 275.681 202.232Z" fill="#A3E8E4" stroke="#337975" stroke-width="0.25" stroke-miterlimit="10"/>
<path d="M273.039 203.143C273.591 203.143 274.039 202.373 274.039 201.423C274.039 200.473 273.591 199.703 273.039 199.703C272.487 199.703 272.039 200.473 272.039 201.423C272.039 202.373 272.487 203.143 273.039 203.143Z" fill="#A3E8E4" stroke="#337975" stroke-width="0.25" stroke-miterlimit="10"/>
<path d="M267.97 202.101C268.826 202.101 269.52 201.618 269.52 201.021C269.52 200.425 268.826 199.941 267.97 199.941C267.114 199.941 266.42 200.425 266.42 201.021C266.42 201.618 267.114 202.101 267.97 202.101Z" fill="#A3E8E4" stroke="#337975" stroke-width="0.25" stroke-miterlimit="10"/>
<path d="M266.681 205.853C267.255 205.853 267.721 205.316 267.721 204.653C267.721 203.99 267.255 203.453 266.681 203.453C266.106 203.453 265.641 203.99 265.641 204.653C265.641 205.316 266.106 205.853 266.681 205.853Z" fill="#A3E8E4" stroke="#337975" stroke-width="0.25" stroke-miterlimit="10"/>
<path d="M272.591 206.373C273.115 206.373 273.541 205.947 273.541 205.423C273.541 204.898 273.115 204.473 272.591 204.473C272.066 204.473 271.641 204.898 271.641 205.423C271.641 205.947 272.066 206.373 272.591 206.373Z" fill="#A3E8E4" stroke="#337975" stroke-width="0.25" stroke-miterlimit="10"/>
<path d="M284.781 199.823C285.686 199.823 286.421 198.999 286.421 197.983C286.421 196.966 285.686 196.143 284.781 196.143C283.875 196.143 283.141 196.966 283.141 197.983C283.141 198.999 283.875 199.823 284.781 199.823Z" fill="#A3E8E4" stroke="#337975" stroke-width="0.25" stroke-miterlimit="10"/>
<path d="M283.47 189.033C284.194 189.033 284.78 187.918 284.78 186.543C284.78 185.168 284.194 184.053 283.47 184.053C282.747 184.053 282.16 185.168 282.16 186.543C282.16 187.918 282.747 189.033 283.47 189.033Z" fill="#A3E8E4" stroke="#337975" stroke-width="0.25" stroke-miterlimit="10"/>
<path d="M286.88 185.992C288.1 185.992 289.09 185.191 289.09 184.202C289.09 183.214 288.1 182.412 286.88 182.412C285.659 182.412 284.67 183.214 284.67 184.202C284.67 185.191 285.659 185.992 286.88 185.992Z" fill="#A3E8E4" stroke="#337975" stroke-width="0.25" stroke-miterlimit="10"/>
<path d="M288.081 192.352C288.644 192.352 289.101 191.784 289.101 191.082C289.101 190.381 288.644 189.812 288.081 189.812C287.517 189.812 287.061 190.381 287.061 191.082C287.061 191.784 287.517 192.352 288.081 192.352Z" fill="#A3E8E4" stroke="#337975" stroke-width="0.25" stroke-miterlimit="10"/>
<path d="M288.05 196.243C288.498 196.243 288.86 195.88 288.86 195.433C288.86 194.986 288.498 194.623 288.05 194.623C287.603 194.623 287.24 194.986 287.24 195.433C287.24 195.88 287.603 196.243 288.05 196.243Z" fill="#A3E8E4" stroke="#337975" stroke-width="0.25" stroke-miterlimit="10"/>
<path d="M290.94 197.983C292.243 197.983 293.3 197.347 293.3 196.563C293.3 195.778 292.243 195.143 290.94 195.143C289.637 195.143 288.58 195.778 288.58 196.563C288.58 197.347 289.637 197.983 290.94 197.983Z" fill="#A3E8E4" stroke="#337975" stroke-width="0.25" stroke-miterlimit="10"/>
<path d="M291.259 185.752C292.165 185.752 292.899 185.138 292.899 184.382C292.899 183.625 292.165 183.012 291.259 183.012C290.353 183.012 289.619 183.625 289.619 184.382C289.619 185.138 290.353 185.752 291.259 185.752Z" fill="#A3E8E4" stroke="#337975" stroke-width="0.25" stroke-miterlimit="10"/>
<path d="M289.15 189.042C289.565 189.042 289.9 188.495 289.9 187.822C289.9 187.148 289.565 186.602 289.15 186.602C288.736 186.602 288.4 187.148 288.4 187.822C288.4 188.495 288.736 189.042 289.15 189.042Z" fill="#A3E8E4" stroke="#337975" stroke-width="0.25" stroke-miterlimit="10"/>
<path d="M285.81 189.023C286.44 189.023 286.95 188.634 286.95 188.153C286.95 187.673 286.44 187.283 285.81 187.283C285.18 187.283 284.67 187.673 284.67 188.153C284.67 188.634 285.18 189.023 285.81 189.023Z" fill="#A3E8E4" stroke="#337975" stroke-width="0.25" stroke-miterlimit="10"/>
<path d="M275.09 198.753C276.068 198.753 276.86 198.354 276.86 197.863C276.86 197.371 276.068 196.973 275.09 196.973C274.113 196.973 273.32 197.371 273.32 197.863C273.32 198.354 274.113 198.753 275.09 198.753Z" fill="#A3E8E4" stroke="#337975" stroke-width="0.25" stroke-miterlimit="10"/>
<path d="M270.63 197.362C271.492 197.362 272.19 196.462 272.19 195.352C272.19 194.242 271.492 193.342 270.63 193.342C269.769 193.342 269.07 194.242 269.07 195.352C269.07 196.462 269.769 197.362 270.63 197.362Z" fill="#A3E8E4" stroke="#337975" stroke-width="0.25" stroke-miterlimit="10"/>
<path d="M266.721 198.842C267.455 198.842 268.051 198.076 268.051 197.132C268.051 196.187 267.455 195.422 266.721 195.422C265.986 195.422 265.391 196.187 265.391 197.132C265.391 198.076 265.986 198.842 266.721 198.842Z" fill="#A3E8E4" stroke="#337975" stroke-width="0.25" stroke-miterlimit="10"/>
<path d="M265.33 201.532C266.197 201.532 266.9 201.04 266.9 200.432C266.9 199.825 266.197 199.332 265.33 199.332C264.463 199.332 263.76 199.825 263.76 200.432C263.76 201.04 264.463 201.532 265.33 201.532Z" fill="#A3E8E4" stroke="#337975" stroke-width="0.25" stroke-miterlimit="10"/>
<path d="M263.741 206.431C264.674 206.431 265.431 205.5 265.431 204.351C265.431 203.203 264.674 202.271 263.741 202.271C262.807 202.271 262.051 203.203 262.051 204.351C262.051 205.5 262.807 206.431 263.741 206.431Z" fill="#A3E8E4" stroke="#337975" stroke-width="0.25" stroke-miterlimit="10"/>
<path d="M261.949 203.121C262.546 203.121 263.029 202.651 263.029 202.071C263.029 201.492 262.546 201.021 261.949 201.021C261.353 201.021 260.869 201.492 260.869 202.071C260.869 202.651 261.353 203.121 261.949 203.121Z" fill="#A3E8E4" stroke="#337975" stroke-width="0.25" stroke-miterlimit="10"/>
<path d="M262.399 199.332C263.156 199.332 263.769 198.62 263.769 197.742C263.769 196.864 263.156 196.152 262.399 196.152C261.643 196.152 261.029 196.864 261.029 197.742C261.029 198.62 261.643 199.332 262.399 199.332Z" fill="#A3E8E4" stroke="#337975" stroke-width="0.25" stroke-miterlimit="10"/>
<path d="M259.601 206.723C260.275 206.723 260.821 205.863 260.821 204.803C260.821 203.742 260.275 202.883 259.601 202.883C258.927 202.883 258.381 203.742 258.381 204.803C258.381 205.863 258.927 206.723 259.601 206.723Z" fill="#A3E8E4" stroke="#337975" stroke-width="0.25" stroke-miterlimit="10"/>
<path d="M264.049 207.042C264.386 207.042 264.659 206.585 264.659 206.022C264.659 205.459 264.386 205.002 264.049 205.002C263.713 205.002 263.439 205.459 263.439 206.022C263.439 206.585 263.713 207.042 264.049 207.042Z" fill="#A3E8E4" stroke="#337975" stroke-width="0.25" stroke-miterlimit="10"/>
<path d="M261.969 208.843C262.577 208.843 263.069 208.458 263.069 207.983C263.069 207.508 262.577 207.123 261.969 207.123C261.362 207.123 260.869 207.508 260.869 207.983C260.869 208.458 261.362 208.843 261.969 208.843Z" fill="#A3E8E4" stroke="#337975" stroke-width="0.25" stroke-miterlimit="10"/>
<path d="M277.08 211.903C277.991 211.903 278.73 211.281 278.73 210.513C278.73 209.745 277.991 209.123 277.08 209.123C276.168 209.123 275.43 209.745 275.43 210.513C275.43 211.281 276.168 211.903 277.08 211.903Z" fill="#A3E8E4" stroke="#337975" stroke-width="0.25" stroke-miterlimit="10"/>
<path d="M278.72 209.892C279.626 209.892 280.36 209.377 280.36 208.742C280.36 208.107 279.626 207.592 278.72 207.592C277.814 207.592 277.08 208.107 277.08 208.742C277.08 209.377 277.814 209.892 278.72 209.892Z" fill="#A3E8E4" stroke="#337975" stroke-width="0.25" stroke-miterlimit="10"/>
<path d="M271.641 214.112C272.381 214.112 272.981 213.118 272.981 211.892C272.981 210.666 272.381 209.672 271.641 209.672C270.901 209.672 270.301 210.666 270.301 211.892C270.301 213.118 270.901 214.112 271.641 214.112Z" fill="#A3E8E4" stroke="#337975" stroke-width="0.25" stroke-miterlimit="10"/>
<path d="M266.43 212.712C267.032 212.712 267.52 212.031 267.52 211.192C267.52 210.352 267.032 209.672 266.43 209.672C265.828 209.672 265.34 210.352 265.34 211.192C265.34 212.031 265.828 212.712 266.43 212.712Z" fill="#A3E8E4" stroke="#337975" stroke-width="0.25" stroke-miterlimit="10"/>
<path d="M260.391 212.712C261.501 212.712 262.401 212.273 262.401 211.732C262.401 211.191 261.501 210.752 260.391 210.752C259.281 210.752 258.381 211.191 258.381 211.732C258.381 212.273 259.281 212.712 260.391 212.712Z" fill="#A3E8E4" stroke="#337975" stroke-width="0.25" stroke-miterlimit="10"/>
<path d="M263.87 211.162C264.312 211.162 264.67 210.642 264.67 210.002C264.67 209.361 264.312 208.842 263.87 208.842C263.429 208.842 263.07 209.361 263.07 210.002C263.07 210.642 263.429 211.162 263.87 211.162Z" fill="#A3E8E4" stroke="#337975" stroke-width="0.25" stroke-miterlimit="10"/>
<path d="M257.64 209.903C258.043 209.903 258.37 209.281 258.37 208.513C258.37 207.745 258.043 207.123 257.64 207.123C257.237 207.123 256.91 207.745 256.91 208.513C256.91 209.281 257.237 209.903 257.64 209.903Z" fill="#A3E8E4" stroke="#337975" stroke-width="0.25" stroke-miterlimit="10"/>
<path d="M255.031 207.822C255.528 207.822 255.931 207.285 255.931 206.622C255.931 205.959 255.528 205.422 255.031 205.422C254.534 205.422 254.131 205.959 254.131 206.622C254.131 207.285 254.534 207.822 255.031 207.822Z" fill="#A3E8E4" stroke="#337975" stroke-width="0.25" stroke-miterlimit="10"/>
<path d="M257.32 203.903C257.547 203.903 257.73 203.674 257.73 203.393C257.73 203.111 257.547 202.883 257.32 202.883C257.094 202.883 256.91 203.111 256.91 203.393C256.91 203.674 257.094 203.903 257.32 203.903Z" fill="#A3E8E4" stroke="#337975" stroke-width="0.25" stroke-miterlimit="10"/>
<path d="M251.811 208.553C252.507 208.553 253.071 208.141 253.071 207.633C253.071 207.125 252.507 206.713 251.811 206.713C251.115 206.713 250.551 207.125 250.551 207.633C250.551 208.141 251.115 208.553 251.811 208.553Z" fill="#A3E8E4" stroke="#337975" stroke-width="0.25" stroke-miterlimit="10"/>
<path d="M280.69 214.423C281.297 214.423 281.79 213.93 281.79 213.323C281.79 212.715 281.297 212.223 280.69 212.223C280.082 212.223 279.59 212.715 279.59 213.323C279.59 213.93 280.082 214.423 280.69 214.423Z" fill="#A3E8E4" stroke="#337975" stroke-width="0.25" stroke-miterlimit="10"/>
<path d="M281.28 211.892C282.307 211.892 283.14 211.583 283.14 211.202C283.14 210.821 282.307 210.512 281.28 210.512C280.253 210.512 279.42 210.821 279.42 211.202C279.42 211.583 280.253 211.892 281.28 211.892Z" fill="#A3E8E4" stroke="#337975" stroke-width="0.25" stroke-miterlimit="10"/>
<path d="M282.041 210.513C282.311 210.513 282.531 210.038 282.531 209.453C282.531 208.867 282.311 208.393 282.041 208.393C281.77 208.393 281.551 208.867 281.551 209.453C281.551 210.038 281.77 210.513 282.041 210.513Z" fill="#A3E8E4" stroke="#337975" stroke-width="0.25" stroke-miterlimit="10"/>
<path d="M277.47 204.793C278.1 204.793 278.61 204.479 278.61 204.093C278.61 203.706 278.1 203.393 277.47 203.393C276.84 203.393 276.33 203.706 276.33 204.093C276.33 204.479 276.84 204.793 277.47 204.793Z" fill="#A3E8E4" stroke="#337975" stroke-width="0.25" stroke-miterlimit="10"/>
<path d="M280.169 202.872C280.523 202.872 280.809 202.325 280.809 201.652C280.809 200.978 280.523 200.432 280.169 200.432C279.816 200.432 279.529 200.978 279.529 201.652C279.529 202.325 279.816 202.872 280.169 202.872Z" fill="#A3E8E4" stroke="#337975" stroke-width="0.25" stroke-miterlimit="10"/>
<path d="M284.099 209.683C284.828 209.683 285.419 209.092 285.419 208.363C285.419 207.634 284.828 207.043 284.099 207.043C283.37 207.043 282.779 207.634 282.779 208.363C282.779 209.092 283.37 209.683 284.099 209.683Z" fill="#A3E8E4" stroke="#337975" stroke-width="0.25" stroke-miterlimit="10"/>
<path d="M88.0399 231.192C86.0399 228.392 78.6399 227.282 82.4399 224.662C86.2399 222.042 81.7699 215.972 84.4899 216.262C87.2099 216.552 89.6499 216.912 91.2399 215.732C92.8299 214.552 93.9699 209.742 98.7699 211.652C103.57 213.562 104.5 215.332 105.9 212.232C107.3 209.132 111.07 212.612 113.22 213.632C115.37 214.652 114.47 215.052 117.62 215.612C120.77 216.172 122.54 214.962 125.85 216.772C129.16 218.582 133.48 222.802 137.77 220.792C142.06 218.782 144.33 222.072 148.55 223.822C152.77 225.572 158.97 224.402 161.57 226.192C164.17 227.982 165.2 228.342 167.1 228.692C169 229.042 175.12 227.102 178.84 228.852C182.56 230.602 184.36 229.722 185.96 231.252C187.56 232.782 192.26 233.792 195.11 233.402C197.96 233.012 199.03 233.512 202.59 234.892C206.16 236.282 212.06 233.872 214.51 235.622C216.96 237.372 218.56 237.372 221.36 237.592C224.16 237.812 226.29 237.372 225.92 239.562C225.55 241.752 229.96 241.672 227.76 245.602C225.56 249.532 221.75 247.592 218.4 249.122C215.05 250.652 211.16 251.802 205.56 253.332C199.96 254.862 195.76 257.042 192.56 254.862C189.36 252.682 191.36 253.102 180.16 252.002C168.96 250.912 142.38 244.232 137.17 242.272C131.96 240.312 105.13 235.212 98.0299 232.802C90.9299 230.402 88.0299 231.202 88.0299 231.202L88.0399 231.192Z" fill="#74DDD7" stroke="#337975" stroke-width="0.25" stroke-miterlimit="10"/>
</svg>
