<svg width="391" height="285" viewBox="0 0 391 285" fill="none" xmlns="http://www.w3.org/2000/svg">
<path d="M63.2715 114.582C63.2715 105.642 66.0315 97.3322 70.7515 90.4922V138.692C66.0215 131.832 63.2715 123.542 63.2715 114.582Z" fill="#44474F"/>
<path d="M80.4298 80.4319V148.752C77.8998 146.852 75.5698 144.692 73.5098 142.272V86.9019C75.5498 84.5019 77.8798 82.3319 80.4298 80.4219V80.4319Z" fill="#44474F"/>
<path d="M90.1075 75.0586V154.139C87.6675 153.199 85.3575 152.009 83.1875 150.619V78.5786C85.3575 77.2086 87.6675 76.0286 90.1075 75.0586Z" fill="#44474F"/>
<path d="M99.7852 72.3066V156.537C97.4052 156.197 95.1052 155.667 92.8652 154.967V73.8766C95.1052 73.1866 97.4152 72.6466 99.7852 72.3066Z" fill="#44474F"/>
<path d="M109.45 72.2005V156.971C108.24 157.081 107.03 157.131 105.8 157.131C104.68 157.131 103.58 157.091 102.51 157.001V72.1906C103.59 72.1006 104.68 72.0605 105.8 72.0605C107.03 72.0605 108.24 72.1006 109.45 72.2206V72.2005Z" fill="#44474F"/>
<path d="M119.111 74.1815V155.001C116.891 155.741 114.561 156.301 112.191 156.661V72.5215C114.571 72.8815 116.901 73.4415 119.111 74.1815Z" fill="#44474F"/>
<path d="M128.79 78.8116V150.362C126.59 151.792 124.29 153.002 121.84 153.992V75.1816C124.28 76.1716 126.59 77.3816 128.79 78.8116Z" fill="#44474F"/>
<path d="M138.441 87.3507V141.831C138.171 142.161 137.871 142.501 137.611 142.791L134.251 143.091L134.221 143.121V146.211C133.361 147.041 132.461 147.771 131.531 148.471V80.7207C132.161 81.1907 132.791 81.6807 133.391 82.2207C134.021 82.7507 134.621 83.2807 135.191 83.8507C135.791 84.3807 136.351 84.9507 136.891 85.5507C137.421 86.1207 137.951 86.7107 138.451 87.3507H138.441Z" fill="#44474F"/>
<path d="M148.33 114.582C148.33 123.322 145.69 131.432 141.18 138.202V90.9922C145.68 97.7322 148.33 105.852 148.33 114.592V114.582Z" fill="#44474F"/>
<path d="M105.761 120.102C108.732 120.102 111.141 117.693 111.141 114.722C111.141 111.751 108.732 109.342 105.761 109.342C102.79 109.342 100.381 111.751 100.381 114.722C100.381 117.693 102.79 120.102 105.761 120.102Z" fill="#74DDD7"/>
<path d="M105.93 106.922C105.93 106.922 83.5605 75.1715 104.95 76.0715C126.35 76.9615 105.93 106.922 105.93 106.922Z" fill="#74DDD7"/>
<path d="M99.0914 114.171C99.0914 114.171 67.3414 136.541 68.2414 115.151C69.1314 93.7509 99.0914 114.171 99.0914 114.171Z" fill="#74DDD7"/>
<path d="M105.741 122.242C105.741 122.242 128.111 153.992 106.721 153.092C85.3212 152.202 105.741 122.242 105.741 122.242Z" fill="#74DDD7"/>
<path d="M112.441 115.091C112.441 115.091 144.191 92.7206 143.291 114.111C142.401 135.511 112.441 115.091 112.441 115.091Z" fill="#74DDD7"/>
<path d="M67.5004 184.021H59.0104C57.1504 184.021 55.6504 182.511 55.6504 180.661C55.6504 178.811 57.1504 177.301 59.0104 177.301H67.5004C69.3604 177.301 70.8604 178.811 70.8604 180.661C70.8604 182.511 69.3604 184.021 67.5004 184.021Z" fill="#A8AAAF"/>
<path d="M230.941 53.6914H52.8205C51.5605 53.6914 50.5605 54.6514 50.5605 55.9214V172.071C50.5605 173.301 51.5605 174.331 52.8205 174.331H134.211V146.221C133.351 147.051 132.451 147.781 131.521 148.481V80.7314C132.151 81.2014 132.781 81.6914 133.381 82.2314C134.011 82.7614 134.611 83.2914 135.181 83.8614C135.781 84.3914 136.341 84.9614 136.881 85.5614C137.411 86.1314 137.941 86.7214 138.481 87.3614V141.841C138.211 142.171 137.911 142.511 137.621 142.801L233.211 134.251V55.9214C233.211 54.6614 232.211 53.6914 230.951 53.6914H230.941ZM70.7505 138.671C66.0306 131.791 63.2705 123.541 63.2705 114.591C63.2705 105.641 66.0306 97.3314 70.7505 90.4814V138.681V138.671ZM80.4305 148.751C77.9005 146.851 75.5705 144.691 73.5105 142.261V86.9114C74.0105 86.3114 74.5406 85.7114 75.1105 85.1514C75.5406 84.7214 75.9405 84.2914 76.3705 83.8914L77.0005 83.2614C77.2006 83.0614 77.4305 82.8614 77.6705 82.6914C78.5305 81.8914 79.4706 81.1314 80.4305 80.4314V148.751ZM88.8505 153.611C88.4205 153.441 88.0205 153.241 87.6205 153.041C87.4905 153.011 87.3505 152.941 87.2505 152.871C86.4205 152.471 85.6205 152.071 84.8205 151.611C84.2505 151.281 83.6905 150.941 83.1605 150.581V78.5714C85.3205 77.2114 87.6805 76.0414 90.0806 75.0414V154.101C89.6506 153.931 89.2505 153.771 88.8505 153.601V153.611ZM92.8405 155.141V74.0214C93.4105 73.8514 93.9706 73.6914 94.5406 73.5514C95.3706 73.3214 96.2405 73.1214 97.0705 72.9814C97.8305 72.8114 98.6306 72.6514 99.4006 72.5514C99.5306 72.5214 99.6305 72.5214 99.7705 72.4814V156.701C97.4105 156.371 95.1105 155.841 92.8505 155.141H92.8405ZM105.811 157.141C105.241 157.141 104.681 157.141 104.151 157.111C103.581 157.081 103.051 157.041 102.521 156.981H102.491V72.2014H102.521C103.621 72.1014 104.681 72.0714 105.811 72.0714C107.041 72.0714 108.241 72.1014 109.171 72.5014V157.251C108.231 157.121 107.041 157.151 105.811 157.151V157.141ZM119.111 155.011C117.981 155.381 116.851 155.711 115.681 155.971C114.551 156.241 113.381 156.471 112.191 156.641H112.161V72.5214H112.191C114.581 72.8914 116.881 73.4514 119.111 74.1814V155.011ZM128.791 150.391C128.221 150.761 127.691 151.091 127.131 151.421C126.461 151.821 125.771 152.191 125.071 152.551C124.741 152.721 124.371 152.881 124.011 153.051C123.311 153.381 122.581 153.721 121.851 154.011V75.1814C124.281 76.1814 126.611 77.3714 128.801 78.8114V150.391H128.791ZM141.201 138.181V90.9814C145.691 97.7314 148.321 105.811 148.321 114.601C148.321 123.391 145.691 131.431 141.201 138.181Z" fill="#D3D4D7"/>
<path d="M134.21 161.632H63.0302C60.6202 161.632 58.6602 159.672 58.6602 157.262V71.1923C58.6602 68.7823 60.6202 66.8223 63.0302 66.8223H149.1C151.51 66.8223 153.47 68.7823 153.47 71.1923V141.382" stroke="#A8AAAF" stroke-miterlimit="10"/>
<path d="M340.691 152.261V180.461C340.691 191.971 331.811 200.831 324.401 201.981L151.851 230.781L161.181 200.351V165.391C161.181 156.701 155.011 149.241 146.481 147.601L136.881 145.761L316.041 129.711L322.601 130.831C333.041 132.611 340.681 141.661 340.681 152.261H340.691Z" fill="#DADBDE"/>
<path d="M147.431 230.661L136.881 228.351V145.781L147.301 147.781C156.201 149.491 162.641 157.281 162.641 166.341V218.421C162.641 226.421 155.251 232.371 147.441 230.661H147.431Z" fill="#7C7F87"/>
<path d="M326.34 190.121V195.921L177.55 220.221L175.68 220.511V214.441L326.34 190.121Z" fill="#50545F"/>
<path d="M334.06 202.911L186.53 229.751L177.55 220.221L175.68 218.731V217.361L324.66 193.451L326.34 195.111L334.06 202.911Z" fill="#A3E8E4"/>
<path d="M340.605 177.537L162.562 202.686L162.739 203.933L340.781 178.784L340.605 177.537Z" fill="#50545F"/>
<path d="M136.999 198.333L136.791 199.576L162.534 203.879L162.742 202.637L136.999 198.333Z" fill="#8D929A"/>
</svg>
