<svg width="391" height="285" viewBox="0 0 391 285" fill="none" xmlns="http://www.w3.org/2000/svg">
<path d="M86.3438 193.774C86.3438 187.794 88.1838 182.234 91.3538 177.664V209.904C88.1938 205.314 86.3438 199.774 86.3438 193.774Z" fill="#44474F"/>
<path d="M97.8234 170.924V216.634C96.1334 215.364 94.5734 213.924 93.1934 212.304V175.264C94.5534 173.664 96.1134 172.204 97.8234 170.934V170.924Z" fill="#44474F"/>
<path d="M104.329 167.287V220.187C102.699 219.557 101.149 218.767 99.6992 217.837V169.637C101.149 168.727 102.699 167.927 104.329 167.287Z" fill="#44474F"/>
<path d="M110.78 165.596V221.946C109.19 221.726 107.65 221.366 106.15 220.896V166.646C107.65 166.186 109.19 165.826 110.78 165.596Z" fill="#44474F"/>
<path d="M117.244 165.423V222.132C116.434 222.212 115.624 222.232 114.804 222.232C114.054 222.232 113.324 222.203 112.604 222.143V165.402C113.324 165.342 114.054 165.312 114.804 165.312C115.624 165.312 116.434 165.343 117.244 165.423Z" fill="#44474F"/>
<path d="M123.702 166.743V220.813C122.222 221.303 120.662 221.683 119.072 221.923V165.633C120.662 165.873 122.222 166.243 123.702 166.743Z" fill="#44474F"/>
<path d="M130.173 169.844V217.714C128.703 218.674 127.163 219.484 125.523 220.144V167.424C127.153 168.084 128.703 168.894 130.173 169.854V169.844Z" fill="#44474F"/>
<path d="M136.634 175.553V212.003C136.454 212.223 136.254 212.443 136.074 212.653L135.174 213.633L134.504 214.353L133.804 214.943C133.224 215.503 132.624 215.993 132.004 216.453V171.123C132.424 171.433 132.854 171.773 133.254 172.123C133.674 172.483 134.074 172.833 134.454 173.213C134.854 173.573 135.234 173.943 135.584 174.343C135.944 174.723 136.294 175.123 136.634 175.543V175.553Z" fill="#44474F"/>
<path d="M143.253 193.772C143.253 199.622 141.483 205.042 138.473 209.572V177.982C141.483 182.492 143.253 187.922 143.253 193.772Z" fill="#44474F"/>
<path d="M115.27 197.464C117.258 197.464 118.87 195.852 118.87 193.864C118.87 191.875 117.258 190.264 115.27 190.264C113.282 190.264 111.67 191.875 111.67 193.864C111.67 195.852 113.282 197.464 115.27 197.464Z" fill="#74DDD7"/>
<path d="M115.379 188.643C115.379 188.643 100.409 167.403 114.729 168.003C129.049 168.603 115.379 188.643 115.379 188.643Z" fill="#74DDD7"/>
<path d="M110.799 193.493C110.799 193.493 89.559 208.463 90.159 194.143C90.759 179.823 110.799 193.493 110.799 193.493Z" fill="#74DDD7"/>
<path d="M115.249 198.893C115.249 198.893 130.219 220.133 115.899 219.533C101.579 218.933 115.249 198.893 115.249 198.893Z" fill="#74DDD7"/>
<path d="M119.738 194.114C119.738 194.114 140.978 179.144 140.378 193.464C139.778 207.784 119.738 194.114 119.738 194.114Z" fill="#74DDD7"/>
<path d="M89.6683 240.223H83.9883C82.7483 240.223 81.7383 239.213 81.7383 237.973C81.7383 236.733 82.7483 235.723 83.9883 235.723H89.6683C90.9083 235.723 91.9183 236.733 91.9183 237.973C91.9183 239.213 90.9083 240.223 89.6683 240.223Z" fill="#A8AAAF"/>
<path d="M194.93 240.223H189.25C188.01 240.223 187 239.213 187 237.973C187 236.733 188.01 235.723 189.25 235.723H194.93C196.17 235.723 197.18 236.733 197.18 237.973C197.18 239.213 196.17 240.223 194.93 240.223Z" fill="#A8AAAF"/>
<path d="M144.26 161.823H86.6798C85.0698 161.823 83.7598 163.123 83.7598 164.743V222.323C83.7598 223.933 85.0698 225.243 86.6798 225.243H144.07C145.79 225.243 147.18 223.843 147.18 222.133V164.743C147.18 163.123 145.87 161.823 144.26 161.823ZM91.3798 209.883C88.2198 205.273 86.3698 199.753 86.3698 193.773C86.3698 187.793 88.2098 182.223 91.3798 177.643V209.883ZM97.8598 216.633C96.1598 215.363 94.6098 213.913 93.2298 212.293V175.263C93.5698 174.863 93.9298 174.463 94.2998 174.083C94.5898 173.793 94.8598 173.513 95.1398 173.243L95.5698 172.813C95.6998 172.683 95.8598 172.553 96.0098 172.443C96.5898 171.913 97.2098 171.403 97.8598 170.933V216.643V216.633ZM100.15 218.153C100.09 218.123 100.03 218.083 99.9798 218.043C99.8798 217.983 99.7798 217.923 99.6798 217.853V169.683C101.12 168.773 102.71 167.983 104.3 167.323V220.223C104.01 220.113 103.74 219.993 103.47 219.883C103.18 219.783 102.91 219.643 102.65 219.513C102.55 219.483 102.47 219.443 102.4 219.403C102.16 219.283 101.93 219.173 101.7 219.053C101.39 218.883 101.08 218.733 100.78 218.553C100.56 218.423 100.35 218.303 100.14 218.163L100.15 218.153ZM106.15 166.633C106.53 166.523 106.91 166.403 107.29 166.323C107.85 166.163 108.43 166.033 108.99 165.953C109.49 165.843 110.03 165.723 110.55 165.653C110.64 165.633 110.71 165.633 110.79 165.613V221.963C109.31 221.753 107.88 221.423 106.46 221.003C106.36 220.973 106.26 220.953 106.16 220.913V166.643L106.15 166.633ZM117.09 222.303C116.46 222.213 115.66 222.243 114.84 222.243C114.46 222.243 114.08 222.243 113.73 222.213C113.35 222.193 112.99 222.173 112.63 222.123H112.61V165.403H112.63C113.37 165.333 114.08 165.313 114.84 165.313H115.08C115.81 165.313 116.52 165.353 117.09 165.603V222.293V222.303ZM119.09 221.903V165.633H119.11C119.27 165.663 119.42 165.683 119.57 165.713C121.01 165.943 122.4 166.303 123.74 166.743V220.813C122.98 221.053 122.23 221.283 121.45 221.453C120.84 221.603 120.21 221.733 119.57 221.823C119.41 221.853 119.27 221.873 119.11 221.893H119.09V221.903ZM125.57 167.403C125.73 167.473 125.88 167.533 126.04 167.613C127.49 168.233 128.9 168.973 130.22 169.833V217.723C129.84 217.963 129.48 218.193 129.11 218.413C128.66 218.683 128.2 218.923 127.73 219.173C127.5 219.273 127.26 219.393 127.02 219.503C126.7 219.663 126.38 219.803 126.05 219.943C125.89 220.013 125.74 220.083 125.58 220.143V167.403H125.57ZM132.04 171.123C132.2 171.233 132.35 171.353 132.51 171.483C132.78 171.693 133.04 171.903 133.29 172.123C133.71 172.483 134.12 172.833 134.49 173.223C134.89 173.583 135.27 173.953 135.63 174.353C135.99 174.733 136.34 175.133 136.69 175.553V212.003C136.52 212.233 136.32 212.443 136.12 212.653C134.45 214.523 133.85 214.943 133.85 214.943C133.42 215.363 132.97 215.733 132.51 216.093C132.35 216.213 132.2 216.333 132.04 216.463V171.143V171.123ZM138.52 177.973C138.68 178.203 138.83 178.453 138.98 178.693C141.71 183.053 143.28 188.203 143.28 193.773C143.28 199.343 141.71 204.463 138.98 208.833C138.83 209.073 138.68 209.323 138.52 209.553V177.973ZM86.2198 154.243H143.61C144.61 154.243 145.5 153.773 146.07 153.033H83.8598C84.3798 153.763 85.2498 154.243 86.2198 154.243Z" fill="#D3D4D7"/>
<path d="M198.559 82.0332H79.3791C78.5491 82.0332 77.8691 82.7132 77.8691 83.5432V232.223C77.8691 233.053 78.5391 233.733 79.3791 233.733H198.559C199.389 233.733 200.059 233.063 200.059 232.243V83.5332C200.059 82.7032 199.389 82.0332 198.559 82.0332ZM83.2791 93.7432C83.2791 92.1332 84.5891 90.8232 86.1991 90.8232H143.779C145.399 90.8232 146.699 92.1332 146.699 93.7432V151.133C146.699 151.853 146.459 152.513 146.049 153.033C145.479 153.773 144.589 154.243 143.589 154.243H86.1991C85.2391 154.243 84.3691 153.763 83.8391 153.033C83.4791 152.553 83.2691 151.963 83.2691 151.323V93.7432H83.2791ZM147.169 222.133C147.169 223.843 145.779 225.243 144.059 225.243H86.6691C85.0591 225.243 83.7491 223.933 83.7491 222.323V164.743C83.7491 163.123 85.0591 161.823 86.6691 161.823H144.249C145.859 161.823 147.169 163.123 147.169 164.743V222.133Z" fill="#D3D4D7"/>
<path d="M147.18 164.742V222.132C147.18 223.842 145.79 225.242 144.07 225.242H86.6798C85.0698 225.242 83.7598 223.932 83.7598 222.322V164.742C83.7598 163.122 85.0698 161.822 86.6798 161.822H144.26C145.87 161.822 147.18 163.122 147.18 164.742Z" stroke="#A8AAAF" stroke-miterlimit="10"/>
<path d="M86.3691 122.762C86.3691 116.782 88.2091 111.222 91.3791 106.652V138.892C88.2191 134.302 86.3691 128.762 86.3691 122.762Z" fill="#44474F"/>
<path d="M97.8585 99.9219V145.632C96.1685 144.362 94.6085 142.922 93.2285 141.302V104.262C94.5885 102.662 96.1485 101.202 97.8585 99.9319V99.9219Z" fill="#44474F"/>
<path d="M104.14 96.502V149.402C102.51 148.772 100.96 147.982 99.5098 147.052V98.852C100.96 97.942 102.51 97.142 104.14 96.502Z" fill="#44474F"/>
<path d="M110.62 94.7715V151.121C109.03 150.901 107.49 150.541 105.99 150.071V95.8215C107.49 95.3615 109.03 95.0015 110.62 94.7715Z" fill="#44474F"/>
<path d="M117.269 94.4225V151.132C116.459 151.213 115.649 151.233 114.829 151.233C114.079 151.233 113.349 151.203 112.629 151.143V94.4025C113.349 94.3425 114.079 94.3125 114.829 94.3125C115.649 94.3125 116.459 94.3425 117.269 94.4225Z" fill="#44474F"/>
<path d="M123.73 95.7428V149.813C122.25 150.303 120.69 150.683 119.1 150.923V94.6328C120.69 94.8728 122.25 95.2428 123.73 95.7428Z" fill="#44474F"/>
<path d="M130.209 98.8419V146.712C128.739 147.672 127.199 148.482 125.559 149.142V96.4219C127.189 97.0819 128.739 97.8919 130.209 98.8519V98.8419Z" fill="#44474F"/>
<path d="M136.659 104.553V141.003C136.479 141.223 136.279 141.443 136.099 141.653L135.199 142.633L134.529 143.353L133.829 143.943C133.249 144.503 132.649 144.993 132.029 145.453V100.123C132.449 100.433 132.879 100.773 133.279 101.123C133.699 101.483 134.099 101.833 134.479 102.213C134.879 102.573 135.259 102.943 135.609 103.343C135.969 103.723 136.319 104.123 136.659 104.543V104.553Z" fill="#44474F"/>
<path d="M143.28 122.763C143.28 128.613 141.51 134.033 138.5 138.563V106.973C141.51 111.483 143.28 116.913 143.28 122.763Z" fill="#44474F"/>
<path d="M114.799 126.462C116.787 126.462 118.399 124.85 118.399 122.862C118.399 120.873 116.787 119.262 114.799 119.262C112.811 119.262 111.199 120.873 111.199 122.862C111.199 124.85 112.811 126.462 114.799 126.462Z" fill="#74DDD7"/>
<path d="M114.909 117.643C114.909 117.643 99.9388 96.4027 114.259 97.0027C128.579 97.6027 114.909 117.643 114.909 117.643Z" fill="#74DDD7"/>
<path d="M110.34 122.493C110.34 122.493 89.1 137.463 89.7 123.143C90.3 108.823 110.34 122.493 110.34 122.493Z" fill="#74DDD7"/>
<path d="M114.79 127.893C114.79 127.893 129.76 149.133 115.44 148.533C101.12 147.933 114.79 127.893 114.79 127.893Z" fill="#74DDD7"/>
<path d="M119.27 123.112C119.27 123.112 140.51 108.142 139.91 122.462C139.31 136.782 119.27 123.112 119.27 123.112Z" fill="#74DDD7"/>
<path d="M143.789 90.8223H86.2091C84.5991 90.8223 83.2891 92.1323 83.2891 93.7423V151.322C83.2891 151.962 83.4991 152.552 83.8591 153.032C84.3791 153.762 85.2491 154.242 86.2191 154.242H143.609C144.609 154.242 145.499 153.772 146.069 153.032C146.479 152.512 146.719 151.852 146.719 151.132V93.7423C146.719 92.1323 145.419 90.8223 143.799 90.8223H143.789ZM138.499 106.982C138.689 107.262 138.869 107.552 139.049 107.842C139.409 108.412 139.749 109.002 140.059 109.612C140.369 110.212 140.669 110.832 140.939 111.462C141.629 113.022 142.169 114.672 142.559 116.382C143.019 118.422 143.269 120.572 143.269 122.772C143.269 124.972 143.039 126.942 142.599 128.922C142.189 130.822 141.579 132.632 140.809 134.352C140.629 134.782 140.429 135.192 140.209 135.602C139.709 136.622 139.129 137.592 138.509 138.532V106.972L138.499 106.982ZM132.019 100.122C132.449 100.432 132.869 100.762 133.269 101.122C133.689 101.482 134.099 101.832 134.469 102.222C134.869 102.582 135.249 102.952 135.609 103.352C135.789 103.542 135.969 103.732 136.139 103.942C136.319 104.142 136.499 104.342 136.669 104.562V141.002C136.499 141.232 136.299 141.452 136.099 141.652C135.749 142.042 135.459 142.362 135.199 142.632C134.669 143.182 134.319 143.512 134.099 143.702C133.909 143.872 133.819 143.932 133.819 143.932C133.239 144.492 132.639 144.982 132.009 145.442V100.122H132.019ZM125.549 96.4123C126.909 96.9723 128.239 97.6423 129.509 98.4123C129.739 98.5423 129.969 98.6923 130.199 98.8423V146.722C129.819 146.962 129.459 147.192 129.089 147.422C128.639 147.682 128.179 147.932 127.709 148.182C127.479 148.292 127.239 148.402 126.999 148.512C126.879 148.572 126.759 148.622 126.629 148.682C126.269 148.852 125.919 149.002 125.549 149.152V96.4223V96.4123ZM119.069 94.6323H119.089C120.699 94.8723 122.229 95.2623 123.719 95.7423V149.812C123.389 149.912 123.059 150.022 122.719 150.122C122.459 150.192 122.199 150.262 121.929 150.332C121.679 150.392 121.429 150.452 121.179 150.502C120.879 150.572 120.579 150.642 120.279 150.702C120.269 150.702 120.249 150.702 120.239 150.702C119.859 150.772 119.479 150.842 119.089 150.892H119.069V94.6123V94.6323ZM112.589 94.4023H112.609C113.349 94.3423 114.059 94.3123 114.819 94.3123C115.029 94.3123 115.229 94.3123 115.429 94.3123C116.029 94.3323 116.599 94.4023 117.069 94.5923V151.282C116.439 151.192 115.639 151.222 114.819 151.222C114.439 151.222 114.059 151.222 113.709 151.192C113.519 151.192 113.329 151.172 113.149 151.162C112.969 151.142 112.789 151.132 112.619 151.112H112.599V94.3923L112.589 94.4023ZM106.129 95.6323C106.509 95.5223 106.889 95.4023 107.269 95.3223C107.829 95.1623 108.409 95.0323 108.969 94.9523C109.469 94.8423 110.009 94.7223 110.529 94.6523C110.619 94.6323 110.689 94.6323 110.769 94.6123V150.962C110.719 150.962 110.659 150.942 110.599 150.932C109.079 150.702 107.599 150.362 106.129 149.902V95.6323ZM99.6591 98.6823C101.099 97.7723 102.689 96.9823 104.279 96.3223V149.222C104.219 149.192 104.169 149.182 104.109 149.152C103.879 149.062 103.669 148.982 103.449 148.892C103.159 148.782 102.889 148.642 102.629 148.512C102.529 148.492 102.449 148.442 102.379 148.402C101.819 148.142 101.289 147.872 100.759 147.562C100.379 147.332 99.9991 147.122 99.6491 146.872V98.6923L99.6591 98.6823ZM93.1991 104.262C93.3691 104.062 93.5491 103.862 93.7191 103.662C94.1591 103.162 94.6291 102.692 95.1091 102.232L95.3891 101.962L95.5391 101.812C95.6391 101.712 95.7591 101.602 95.8691 101.512C95.8991 101.482 95.9491 101.452 95.9791 101.422C96.1791 101.242 96.3791 101.062 96.5791 100.902C96.5991 100.882 96.6091 100.872 96.6291 100.862C96.7991 100.712 96.9691 100.572 97.1391 100.442C97.3691 100.252 97.5891 100.072 97.8291 99.9123V145.622C97.5191 145.392 97.2091 145.152 96.9091 144.902C96.6891 144.732 96.4791 144.552 96.2791 144.372C95.9791 144.122 95.6891 143.862 95.3991 143.592C95.0091 143.222 94.6391 142.852 94.2691 142.472C93.8991 142.092 93.5491 141.702 93.1991 141.292V104.262ZM91.3591 106.652V138.882C89.7791 136.582 88.5291 134.052 87.6691 131.342C86.8091 128.642 86.3491 125.772 86.3491 122.772C86.3491 116.782 88.1891 111.232 91.3591 106.642V106.652Z" fill="#D3D4D7"/>
<path d="M146.709 93.7423V151.132C146.709 151.852 146.469 152.512 146.059 153.032C145.489 153.772 144.599 154.242 143.599 154.242H86.2093C85.2493 154.242 84.3793 153.762 83.8493 153.032C83.4893 152.552 83.2793 151.962 83.2793 151.322V93.7423C83.2793 92.1323 84.5893 90.8223 86.1993 90.8223H143.779C145.399 90.8223 146.699 92.1323 146.699 93.7423H146.709Z" stroke="#A8AAAF" stroke-miterlimit="10"/>
<path d="M210.639 261.912H312.469L312.469 29.7421H210.639L210.639 261.912Z" fill="#D3D4D7"/>
<path d="M193.439 254.922L210.619 261.922V29.752L193.439 22.752V254.922Z" fill="#2A4D4A"/>
<path d="M193.219 22.7227H295.039L312.439 29.7527H210.619L193.219 22.7227Z" fill="#E9EAEB"/>
<path d="M251.578 75.3027H271.538C272.433 75.3027 273.158 74.5774 273.158 73.6827V44.0327C273.158 43.138 272.433 42.4127 271.538 42.4127H251.578C250.684 42.4127 249.958 43.138 249.958 44.0327V73.6827C249.958 74.5774 250.684 75.3027 251.578 75.3027Z" fill="#50545F"/>
<path d="M252.868 61.9434H270.238C270.835 61.9434 271.318 61.4598 271.318 60.8634V45.5734C271.318 44.9769 270.835 44.4934 270.238 44.4934H252.868C252.272 44.4934 251.788 44.9769 251.788 45.5734V60.8634C251.788 61.4598 252.272 61.9434 252.868 61.9434Z" fill="#A3E8E4"/>
<path d="M261.518 71.8531C263.424 71.8531 264.968 70.3085 264.968 68.4031C264.968 66.4977 263.424 64.9531 261.518 64.9531C259.613 64.9531 258.068 66.4977 258.068 68.4031C258.068 70.3085 259.613 71.8531 261.518 71.8531Z" fill="#A8AAAF"/>
<path d="M254.209 70.1626C255.181 70.1626 255.969 69.3746 255.969 68.4026C255.969 67.4306 255.181 66.6426 254.209 66.6426C253.237 66.6426 252.449 67.4306 252.449 68.4026C252.449 69.3746 253.237 70.1626 254.209 70.1626Z" fill="#A8AAAF"/>
<path d="M268.819 70.1626C269.791 70.1626 270.579 69.3746 270.579 68.4026C270.579 67.4306 269.791 66.6426 268.819 66.6426C267.847 66.6426 267.059 67.4306 267.059 68.4026C267.059 69.3746 267.847 70.1626 268.819 70.1626Z" fill="#A8AAAF"/>
<g style="mix-blend-mode:multiply" opacity="0.22">
<path d="M244.48 257.952L218.79 257.132C217.07 257.082 215.9 255.932 215.89 254.302L215.51 34.022C215.51 33.562 216.14 33.252 217.06 33.252L230.56 33.352C231.88 33.352 233.25 34.062 233.3 34.742L249.2 253.142C249.38 255.582 246.99 258.022 244.47 257.942L244.48 257.952Z" fill="#A8AAAF"/>
</g>
</svg>
