<svg width="391" height="285" viewBox="0 0 391 285" fill="none" xmlns="http://www.w3.org/2000/svg">
<path d="M282.7 248.682L162.17 242.822V25.2224L282.7 13.4824V248.682Z" fill="#2C2E30"/>
<path d="M289.779 13.4824H282.699V248.682L289.779 244.182V13.4824Z" fill="#2A4D4A"/>
<path d="M277.298 134.558L167.195 137.441L167.326 142.44L277.428 139.557L277.298 134.558Z" fill="#DADBDE"/>
<path d="M277.714 18.5837L166.918 29.6816L167.018 30.6767L277.813 19.5787L277.714 18.5837Z" fill="#74DDD7"/>
<path d="M277.722 30.3659L166.922 40.5859L167.014 41.5817L277.813 31.3616L277.722 30.3659Z" fill="#74DDD7"/>
<path d="M277.723 42.1845L166.926 51.5273L167.01 52.5238L277.807 43.181L277.723 42.1845Z" fill="#74DDD7"/>
<path d="M277.732 54.0152L166.934 62.4629L167.01 63.46L277.808 55.0123L277.732 54.0152Z" fill="#74DDD7"/>
<path d="M277.74 65.7865L166.939 73.3789L167.008 74.3766L277.808 66.7841L277.74 65.7865Z" fill="#74DDD7"/>
<path d="M277.724 77.598L166.928 84.3164L166.988 85.3146L277.785 78.5962L277.724 77.598Z" fill="#74DDD7"/>
<path d="M277.743 89.4237L166.938 95.2695L166.99 96.2681L277.796 90.4223L277.743 89.4237Z" fill="#74DDD7"/>
<path d="M277.743 101.185L166.945 106.178L166.99 107.177L277.788 102.184L277.743 101.185Z" fill="#74DDD7"/>
<path d="M277.764 112.977L166.961 117.098L166.998 118.097L277.801 113.976L277.764 112.977Z" fill="#74DDD7"/>
<path d="M277.759 124.789L166.957 128.039L166.986 129.039L277.789 125.789L277.759 124.789Z" fill="#74DDD7"/>
<path d="M277.758 136.609L166.953 138.988L166.975 139.988L277.779 137.609L277.758 136.609Z" fill="#74DDD7"/>
<path d="M277.751 148.415L166.951 149.924L166.965 150.924L277.764 149.415L277.751 148.415Z" fill="#74DDD7"/>
<path d="M277.777 160.175L166.979 160.832L166.984 161.832L277.782 161.175L277.777 160.175Z" fill="#74DDD7"/>
<path d="M166.97 171.816L166.969 172.816L277.769 172.971L277.77 171.971L166.97 171.816Z" fill="#74DDD7"/>
<path d="M166.962 182.734L166.953 183.734L277.749 184.74L277.758 183.74L166.962 182.734Z" fill="#74DDD7"/>
<path d="M166.984 193.686L166.967 194.686L277.771 196.562L277.788 195.562L166.984 193.686Z" fill="#74DDD7"/>
<path d="M166.976 204.612L166.951 205.611L277.748 208.338L277.772 207.339L166.976 204.612Z" fill="#74DDD7"/>
<path d="M166.991 215.563L166.959 216.562L277.761 220.161L277.793 219.161L166.991 215.563Z" fill="#74DDD7"/>
<path d="M166.974 226.485L166.934 227.484L277.734 231.935L277.774 230.935L166.974 226.485Z" fill="#74DDD7"/>
<path d="M167.007 237.437L166.959 238.436L277.761 243.758L277.809 242.759L167.007 237.437Z" fill="#74DDD7"/>
<path d="M167.391 29.6328H167.141V238.813H167.391V29.6328Z" fill="#74DDD7"/>
<path d="M170.02 29.3828H169.77V238.923H170.02V29.3828Z" fill="#74DDD7"/>
<path d="M172.66 29.1328H172.41V239.043H172.66V29.1328Z" fill="#74DDD7"/>
<path d="M175.32 28.8828H175.07V239.163H175.32V28.8828Z" fill="#74DDD7"/>
<path d="M177.98 28.6328H177.73V239.293H177.98V28.6328Z" fill="#74DDD7"/>
<path d="M180.65 28.3828H180.4V239.413H180.65V28.3828Z" fill="#74DDD7"/>
<path d="M183.33 28.1328H183.08V239.533H183.33V28.1328Z" fill="#74DDD7"/>
<path d="M186.02 27.873H185.77V239.653H186.02V27.873Z" fill="#74DDD7"/>
<path d="M188.721 27.623H188.471V239.783H188.721V27.623Z" fill="#74DDD7"/>
<path d="M191.439 27.3633H191.189V239.903H191.439V27.3633Z" fill="#74DDD7"/>
<path d="M194.16 27.1133H193.91V240.033H194.16V27.1133Z" fill="#74DDD7"/>
<path d="M196.881 26.8535H196.631V240.154H196.881V26.8535Z" fill="#74DDD7"/>
<path d="M199.619 26.5938H199.369V240.274H199.619V26.5938Z" fill="#74DDD7"/>
<path d="M202.369 26.334H202.119V240.394H202.369V26.334Z" fill="#74DDD7"/>
<path d="M205.131 26.0723H204.881V240.522H205.131V26.0723Z" fill="#74DDD7"/>
<path d="M207.9 25.8125H207.65V240.643H207.9V25.8125Z" fill="#74DDD7"/>
<path d="M210.68 25.5527H210.43V240.773H210.68V25.5527Z" fill="#74DDD7"/>
<path d="M213.471 25.293H213.221V240.903H213.471V25.293Z" fill="#74DDD7"/>
<path d="M216.27 25.0234H216.02V241.023H216.27V25.0234Z" fill="#74DDD7"/>
<path d="M219.08 24.7637H218.83V241.164H219.08V24.7637Z" fill="#74DDD7"/>
<path d="M221.9 24.4941H221.65V241.284H221.9V24.4941Z" fill="#74DDD7"/>
<path d="M224.73 24.2324H224.48V241.422H224.73V24.2324Z" fill="#74DDD7"/>
<path d="M227.57 23.9629H227.32V241.543H227.57V23.9629Z" fill="#74DDD7"/>
<path d="M230.42 23.6934H230.17V241.673H230.42V23.6934Z" fill="#74DDD7"/>
<path d="M233.279 23.4238H233.029V241.804H233.279V23.4238Z" fill="#74DDD7"/>
<path d="M236.15 23.1523H235.9V241.932H236.15V23.1523Z" fill="#74DDD7"/>
<path d="M239.029 22.8828H238.779V242.063H239.029V22.8828Z" fill="#74DDD7"/>
<path d="M241.93 22.6133H241.68V242.203H241.93V22.6133Z" fill="#74DDD7"/>
<path d="M244.83 22.334H244.58V242.324H244.83V22.334Z" fill="#74DDD7"/>
<path d="M247.74 22.0625H247.49V242.462H247.74V22.0625Z" fill="#74DDD7"/>
<path d="M250.67 21.7832H250.42V242.593H250.67V21.7832Z" fill="#74DDD7"/>
<path d="M253.609 21.5039H253.359V242.724H253.609V21.5039Z" fill="#74DDD7"/>
<path d="M256.551 21.2324H256.301V242.862H256.551V21.2324Z" fill="#74DDD7"/>
<path d="M259.51 20.9531H259.26V242.993H259.51V20.9531Z" fill="#74DDD7"/>
<path d="M262.48 20.6738H262.23V243.134H262.48V20.6738Z" fill="#74DDD7"/>
<path d="M265.461 20.3926H265.211V243.273H265.461V20.3926Z" fill="#74DDD7"/>
<path d="M268.449 20.1133H268.199V243.403H268.449V20.1133Z" fill="#74DDD7"/>
<path d="M271.449 19.8223H271.199V243.532H271.449V19.8223Z" fill="#74DDD7"/>
<path d="M274.471 19.543H274.221V243.673H274.471V19.543Z" fill="#74DDD7"/>
<path d="M277.49 19.2539H277.24V243.814H277.49V19.2539Z" fill="#74DDD7"/>
<path d="M278.37 244.402L166.26 238.892V29.2123L278.37 18.1523V244.402ZM168.26 236.992L276.37 242.302V20.3623L168.26 31.0223V236.992Z" fill="#DADBDE"/>
<path d="M221.761 271.083L101.221 265.213V47.6128L221.761 35.8828V271.083Z" fill="#2C2E30"/>
<path d="M228.83 35.8828H221.76V271.083L228.83 266.573V35.8828Z" fill="#2A4D4A"/>
<path d="M216.354 156.957L106.252 159.84L106.383 164.838L216.485 161.955L216.354 156.957Z" fill="#DADBDE"/>
<path d="M216.77 40.9841L105.975 52.082L106.074 53.0771L216.87 41.9791L216.77 40.9841Z" fill="#74DDD7"/>
<path d="M216.786 52.7585L105.986 62.9785L106.078 63.9743L216.878 53.7542L216.786 52.7585Z" fill="#74DDD7"/>
<path d="M216.779 64.5869L105.982 73.9297L106.066 74.9262L216.863 65.5833L216.779 64.5869Z" fill="#74DDD7"/>
<path d="M216.781 76.4137L105.982 84.8613L106.058 85.8584L216.857 77.4108L216.781 76.4137Z" fill="#74DDD7"/>
<path d="M216.792 88.181L105.992 95.7734L106.061 96.7711L216.861 89.1786L216.792 88.181Z" fill="#74DDD7"/>
<path d="M216.791 99.9939L105.984 106.713L106.045 107.711L216.851 100.992L216.791 99.9939Z" fill="#74DDD7"/>
<path d="M216.788 111.814L105.982 117.66L106.035 118.659L216.841 112.813L216.788 111.814Z" fill="#74DDD7"/>
<path d="M216.803 123.576L106.006 128.568L106.051 129.567L216.848 124.575L216.803 123.576Z" fill="#74DDD7"/>
<path d="M216.819 135.377L106.016 139.498L106.053 140.497L216.856 136.376L216.819 135.377Z" fill="#74DDD7"/>
<path d="M216.812 147.186L106.01 150.436L106.039 151.435L216.841 148.185L216.812 147.186Z" fill="#74DDD7"/>
<path d="M216.812 158.992L106.008 161.371L106.029 162.371L216.834 159.992L216.812 158.992Z" fill="#74DDD7"/>
<path d="M216.811 170.812L106.012 172.32L106.025 173.32L216.825 171.812L216.811 170.812Z" fill="#74DDD7"/>
<path d="M216.829 182.577L106.031 183.234L106.037 184.234L216.835 183.577L216.829 182.577Z" fill="#74DDD7"/>
<path d="M106.035 194.217L106.033 195.217L216.833 195.372L216.834 194.372L106.035 194.217Z" fill="#74DDD7"/>
<path d="M106.019 205.135L106.01 206.135L216.815 207.14L216.824 206.14L106.019 205.135Z" fill="#74DDD7"/>
<path d="M106.029 216.086L106.012 217.086L216.816 218.962L216.833 217.962L106.029 216.086Z" fill="#74DDD7"/>
<path d="M106.03 227.004L106.006 228.004L216.802 230.731L216.827 229.731L106.03 227.004Z" fill="#74DDD7"/>
<path d="M106.042 237.967L106.01 238.967L216.811 242.565L216.844 241.566L106.042 237.967Z" fill="#74DDD7"/>
<path d="M106.04 248.886L106 249.885L216.801 254.335L216.841 253.336L106.04 248.886Z" fill="#74DDD7"/>
<path d="M106.056 259.841L106.008 260.84L216.81 266.162L216.858 265.163L106.056 259.841Z" fill="#74DDD7"/>
<path d="M106.439 52.0234H106.189V261.203H106.439V52.0234Z" fill="#74DDD7"/>
<path d="M109.08 51.7832H108.83V261.323H109.08V51.7832Z" fill="#74DDD7"/>
<path d="M111.721 51.5332H111.471V261.443H111.721V51.5332Z" fill="#74DDD7"/>
<path d="M114.369 51.2832H114.119V261.563H114.369V51.2832Z" fill="#74DDD7"/>
<path d="M117.039 51.0332H116.789V261.693H117.039V51.0332Z" fill="#74DDD7"/>
<path d="M119.711 50.7734H119.461V261.803H119.711V50.7734Z" fill="#74DDD7"/>
<path d="M122.391 50.5234H122.141V261.923H122.391V50.5234Z" fill="#74DDD7"/>
<path d="M125.08 50.2734H124.83V262.053H125.08V50.2734Z" fill="#74DDD7"/>
<path d="M127.779 50.0137H127.529V262.174H127.779V50.0137Z" fill="#74DDD7"/>
<path d="M130.49 49.7637H130.24V262.304H130.49V49.7637Z" fill="#74DDD7"/>
<path d="M133.211 49.5039H132.961V262.424H133.211V49.5039Z" fill="#74DDD7"/>
<path d="M135.939 49.2441H135.689V262.544H135.939V49.2441Z" fill="#74DDD7"/>
<path d="M138.68 48.9941H138.43V262.674H138.68V48.9941Z" fill="#74DDD7"/>
<path d="M141.43 48.7324H141.18V262.792H141.43V48.7324Z" fill="#74DDD7"/>
<path d="M144.189 48.4727H143.939V262.923H144.189V48.4727Z" fill="#74DDD7"/>
<path d="M146.961 48.2129H146.711V263.053H146.961V48.2129Z" fill="#74DDD7"/>
<path d="M149.74 47.9434H149.49V263.163H149.74V47.9434Z" fill="#74DDD7"/>
<path d="M152.529 47.6836H152.279V263.294H152.529V47.6836Z" fill="#74DDD7"/>
<path d="M155.33 47.4238H155.08V263.424H155.33V47.4238Z" fill="#74DDD7"/>
<path d="M158.131 47.1523H157.881V263.552H158.131V47.1523Z" fill="#74DDD7"/>
<path d="M160.949 46.8926H160.699V263.683H160.949V46.8926Z" fill="#74DDD7"/>
<path d="M163.779 46.623H163.529V263.813H163.779V46.623Z" fill="#74DDD7"/>
<path d="M166.619 46.3535H166.369V263.934H166.619V46.3535Z" fill="#74DDD7"/>
<path d="M169.471 46.084H169.221V264.064H169.471V46.084Z" fill="#74DDD7"/>
<path d="M172.34 45.8125H172.09V264.193H172.34V45.8125Z" fill="#74DDD7"/>
<path d="M175.211 45.543H174.961V264.323H175.211V45.543Z" fill="#74DDD7"/>
<path d="M178.09 45.2734H177.84V264.453H178.09V45.2734Z" fill="#74DDD7"/>
<path d="M180.98 45.0039H180.73V264.594H180.98V45.0039Z" fill="#74DDD7"/>
<path d="M183.891 44.7324H183.641V264.722H183.891V44.7324Z" fill="#74DDD7"/>
<path d="M186.801 44.4531H186.551V264.853H186.801V44.4531Z" fill="#74DDD7"/>
<path d="M189.73 44.1836H189.48V264.994H189.73V44.1836Z" fill="#74DDD7"/>
<path d="M192.66 43.9023H192.41V265.122H192.66V43.9023Z" fill="#74DDD7"/>
<path d="M195.609 43.623H195.359V265.253H195.609V43.623Z" fill="#74DDD7"/>
<path d="M198.57 43.3438H198.32V265.384H198.57V43.3438Z" fill="#74DDD7"/>
<path d="M201.529 43.0625H201.279V265.522H201.529V43.0625Z" fill="#74DDD7"/>
<path d="M204.52 42.7832H204.27V265.663H204.52V42.7832Z" fill="#74DDD7"/>
<path d="M207.51 42.5039H207.26V265.794H207.51V42.5039Z" fill="#74DDD7"/>
<path d="M210.51 42.2227H210.26V265.933H210.51V42.2227Z" fill="#74DDD7"/>
<path d="M213.52 41.9336H213.27V266.064H213.52V41.9336Z" fill="#74DDD7"/>
<path d="M216.551 41.6523H216.301V266.212H216.551V41.6523Z" fill="#74DDD7"/>
<path d="M217.421 266.793L105.311 261.283V51.603L217.421 40.543V266.793ZM107.311 259.383L215.421 264.693V42.753L107.311 53.413V259.383Z" fill="#DADBDE"/>
</svg>
