<svg width="390" height="284" viewBox="0 0 390 284" fill="none" xmlns="http://www.w3.org/2000/svg">
<path d="M267.901 236H125.601C113.001 236 102.801 225.8 102.801 213.2V70.8C102.801 58.2 113.001 48 125.601 48H267.901C280.501 48 290.701 58.2 290.701 70.8V213.1C290.701 225.7 280.501 236 267.901 236Z" fill="#D3D4D7"/>
<path d="M131.6 142.6C131.6 129.1 135.8 116.5 142.9 106.1V179.1C135.7 168.7 131.6 156.2 131.6 142.6Z" fill="#44474F"/>
<path d="M157.5 90.9004V194.4C153.7 191.5 150.1 188.3 147 184.6V100.7C150.1 97.0004 153.7 93.8004 157.5 90.9004Z" fill="#44474F"/>
<path d="M172.199 82.6992V202.499C168.499 201.099 164.999 199.299 161.699 197.199V88.0992C164.999 85.9992 168.499 84.1992 172.199 82.6992Z" fill="#44474F"/>
<path d="M186.801 78.5996V206.2C183.201 205.7 179.701 204.9 176.301 203.8V80.8996C179.801 79.8996 183.301 79.0996 186.801 78.5996Z" fill="#44474F"/>
<path d="M201.5 78.3992V206.799C199.7 206.999 197.8 206.999 196 206.999C194.3 206.999 192.6 206.899 191 206.799V78.3992C192.6 78.2992 194.3 78.1992 196 78.1992C197.8 78.1992 199.7 78.2992 201.5 78.3992Z" fill="#44474F"/>
<path d="M216.1 81.4004V203.8C212.7 204.9 209.2 205.8 205.6 206.3V78.9004C209.2 79.4004 212.8 80.3004 216.1 81.4004Z" fill="#44474F"/>
<path d="M230.801 88.4004V196.8C227.501 199 224.001 200.8 220.301 202.3V82.9004C223.901 84.4004 227.401 86.3004 230.801 88.4004Z" fill="#44474F"/>
<path d="M241.6 187.801L239 190.501C237.7 191.801 236.3 192.901 234.9 193.901V91.3008C235.9 92.0008 236.8 92.8008 237.7 93.6008C238.7 94.4008 239.6 95.2008 240.4 96.1008C241.3 96.9008 242.2 97.8008 243 98.7008C243.8 99.6008 244.6 100.501 245.4 101.401V183.901C245 184.401 243.8 185.901 243.4 186.301" fill="#44474F"/>
<path d="M260.4 142.6C260.4 155.8 256.4 168.1 249.6 178.4V106.9C256.4 117.1 260.4 129.4 260.4 142.6Z" fill="#44474F"/>
<path d="M195.901 151.001C200.401 151.001 204.001 147.401 204.001 142.901C204.001 138.401 200.401 134.801 195.901 134.801C191.401 134.801 187.801 138.401 187.801 142.901C187.801 147.401 191.401 151.001 195.901 151.001Z" fill="#74DDD7"/>
<path d="M196.201 131C196.201 131 162.301 82.8995 194.701 84.2995C227.101 85.5995 196.201 131 196.201 131Z" fill="#74DDD7"/>
<path d="M185.8 142C185.8 142 137.7 175.9 139.1 143.5C140.4 111 185.8 142 185.8 142Z" fill="#74DDD7"/>
<path d="M195.901 154.199C195.901 154.199 229.801 202.299 197.401 200.899C164.901 199.599 195.901 154.199 195.901 154.199Z" fill="#74DDD7"/>
<path d="M206 143.4C206 143.4 254.1 109.5 252.7 141.9C251.4 174.3 206 143.4 206 143.4Z" fill="#74DDD7"/>
<mask id="mask0_6894_71365" style="mask-type:luminance" maskUnits="userSpaceOnUse" x="102" y="48" width="188" height="189">
<path d="M267.1 48.3008H124.8C112.208 48.3008 102 58.5087 102 71.1008V213.401C102 225.993 112.208 236.201 124.8 236.201H267.1C279.692 236.201 289.9 225.993 289.9 213.401V71.1008C289.9 58.5087 279.692 48.3008 267.1 48.3008Z" fill="white"/>
</mask>
<g mask="url(#mask0_6894_71365)">
<path d="M385.501 50.9004H115.701C113.801 50.9004 112.301 52.4004 112.301 54.3004V230.2C112.301 232.1 113.801 233.6 115.701 233.6H239.001V191C237.701 192.3 236.301 193.4 234.901 194.4V91.9004C235.901 92.6004 236.801 93.4004 237.701 94.2004C238.701 95.0004 239.601 95.8004 240.401 96.7004C241.301 97.5004 242.201 98.4004 243.001 99.3004C243.801 100.2 244.601 101.1 245.401 102V184.5C245.001 185 244.501 185.5 244.101 186L388.901 173.1V54.3004C388.901 52.4004 387.401 50.9004 385.501 50.9004ZM142.901 179.6C135.801 169.2 131.601 156.7 131.601 143.1C131.601 129.5 135.801 117 142.901 106.6V179.6ZM157.501 194.9C153.701 192 150.101 188.8 147.001 185.1V101.3C147.801 100.4 148.601 99.5004 149.401 98.6004C150.101 97.9004 150.701 97.3004 151.301 96.7004L152.301 95.7004C152.601 95.4004 153.001 95.1004 153.301 94.8004C154.601 93.6004 156.001 92.4004 157.501 91.4004V194.9ZM170.301 202.2C169.601 201.9 169.001 201.6 168.401 201.3C168.201 201.3 168.001 201.1 167.801 201C166.501 200.4 165.301 199.8 164.101 199.1C163.201 198.6 162.401 198.1 161.601 197.5V88.6004C164.901 86.5004 168.401 84.8004 172.101 83.3004V203C171.501 202.7 170.901 202.5 170.301 202.2ZM176.301 204.5V81.7004C177.201 81.4004 178.001 81.2004 178.901 81.0004C180.201 80.7004 181.501 80.3004 182.701 80.1004C183.901 79.8004 185.101 79.6004 186.201 79.4004C186.401 79.4004 186.501 79.4004 186.801 79.3004V206.8C183.301 206.4 179.801 205.6 176.301 204.5ZM196.001 207.6H193.501C192.601 207.6 191.801 207.5 191.001 207.4V78.9004C192.701 78.7004 194.301 78.7004 196.001 78.7004C197.901 78.7004 199.701 78.7004 201.101 79.4004V207.7C199.601 207.5 197.801 207.6 196.001 207.6ZM216.101 204.3C214.401 204.9 212.701 205.4 210.901 205.8C209.201 206.2 207.401 206.6 205.601 206.8V79.4004C209.201 80.0004 212.701 80.8004 216.101 81.9004V204.3ZM230.801 197.3C229.901 197.9 229.101 198.4 228.301 198.9C227.301 199.5 226.201 200.1 225.201 200.6C224.701 200.9 224.101 201.1 223.601 201.4C222.501 201.9 221.401 202.4 220.301 202.9V83.4004C224.001 84.9004 227.501 86.7004 230.801 88.9004V197.3ZM249.601 178.9V107.4C256.401 117.6 260.401 129.9 260.401 143.2C260.401 156.5 256.401 168.6 249.601 178.9Z" fill="#D3D4D7"/>
</g>
<path d="M253.5 215.8H140.5C130.5 215.8 122.4 207.7 122.4 197.7V84.6996C122.4 74.6996 130.5 66.5996 140.5 66.5996H253.5C263.5 66.5996 271.6 74.6996 271.6 84.6996V197.7C271.6 207.6 263.5 215.8 253.5 215.8Z" stroke="#A8AAAF" stroke-width="1.69" stroke-miterlimit="10"/>
</svg>
