<svg width="24" height="24" viewBox="0 0 24 24" fill="none" xmlns="http://www.w3.org/2000/svg">
<path fill-rule="evenodd" clip-rule="evenodd" d="M12 13.5C11.173 13.5 10.5 12.827 10.5 12C10.5 11.9869 10.503 11.9741 10.506 11.9613L10.506 11.9613C10.5088 11.9496 10.5115 11.9379 10.512 11.926L12.074 13.488C12.0621 13.4885 12.0504 13.4912 12.0387 13.494C12.0259 13.497 12.0131 13.5 12 13.5ZM4.707 3.29301C4.316 2.90201 3.684 2.90201 3.293 3.29301C2.902 3.68401 2.902 4.31601 3.293 4.70701L8.923 10.337C8.647 10.846 8.5 11.411 8.5 12C8.5 13.93 10.07 15.5 12 15.5C12.589 15.5 13.154 15.353 13.663 15.077L19.293 20.707C19.488 20.902 19.744 21 20 21C20.256 21 20.512 20.902 20.707 20.707C21.098 20.316 21.098 19.684 20.707 19.293L4.707 3.29301ZM12.2197 16.9976C7.9147 17.0976 5.1047 13.4146 4.1727 11.9956C4.6297 11.2816 5.3957 10.2356 6.4557 9.28461L5.0447 7.87261C3.5227 9.26161 2.5467 10.7796 2.1327 11.5026C1.9557 11.8106 1.9557 12.1896 2.1327 12.4976C2.7617 13.5946 6.1617 18.9996 12.0247 18.9996C12.1067 18.9996 12.1887 18.9986 12.2707 18.9966C13.4547 18.9666 14.5267 18.7106 15.4977 18.3266L13.9177 16.7466C13.3827 16.8886 12.8197 16.9826 12.2197 16.9976ZM11.7297 5.00341C17.7047 4.81641 21.2297 10.3904 21.8677 11.5024C22.0437 11.8104 22.0437 12.1894 21.8677 12.4974C21.4527 13.2204 20.4767 14.7384 18.9547 16.1274L17.5437 14.7154C18.6037 13.7644 19.3707 12.7184 19.8267 12.0044C18.8947 10.5854 16.0717 6.89441 11.7807 7.00241C11.1807 7.01741 10.6177 7.11141 10.0817 7.25341L8.5017 5.67341C9.4737 5.28941 10.5447 5.03341 11.7297 5.00341Z" fill="#191B1E"/>
<mask id="mask0_108_20890" style="mask-type:luminance" maskUnits="userSpaceOnUse" x="2" y="2" width="20" height="19">
<path fill-rule="evenodd" clip-rule="evenodd" d="M12 13.5C11.173 13.5 10.5 12.827 10.5 12C10.5 11.9869 10.503 11.9741 10.506 11.9613L10.506 11.9613C10.5088 11.9496 10.5115 11.9379 10.512 11.926L12.074 13.488C12.0621 13.4885 12.0504 13.4912 12.0387 13.494C12.0259 13.497 12.0131 13.5 12 13.5ZM4.707 3.29301C4.316 2.90201 3.684 2.90201 3.293 3.29301C2.902 3.68401 2.902 4.31601 3.293 4.70701L8.923 10.337C8.647 10.846 8.5 11.411 8.5 12C8.5 13.93 10.07 15.5 12 15.5C12.589 15.5 13.154 15.353 13.663 15.077L19.293 20.707C19.488 20.902 19.744 21 20 21C20.256 21 20.512 20.902 20.707 20.707C21.098 20.316 21.098 19.684 20.707 19.293L4.707 3.29301ZM12.2197 16.9976C7.9147 17.0976 5.1047 13.4146 4.1727 11.9956C4.6297 11.2816 5.3957 10.2356 6.4557 9.28461L5.0447 7.87261C3.5227 9.26161 2.5467 10.7796 2.1327 11.5026C1.9557 11.8106 1.9557 12.1896 2.1327 12.4976C2.7617 13.5946 6.1617 18.9996 12.0247 18.9996C12.1067 18.9996 12.1887 18.9986 12.2707 18.9966C13.4547 18.9666 14.5267 18.7106 15.4977 18.3266L13.9177 16.7466C13.3827 16.8886 12.8197 16.9826 12.2197 16.9976ZM11.7297 5.00341C17.7047 4.81641 21.2297 10.3904 21.8677 11.5024C22.0437 11.8104 22.0437 12.1894 21.8677 12.4974C21.4527 13.2204 20.4767 14.7384 18.9547 16.1274L17.5437 14.7154C18.6037 13.7644 19.3707 12.7184 19.8267 12.0044C18.8947 10.5854 16.0717 6.89441 11.7807 7.00241C11.1807 7.01741 10.6177 7.11141 10.0817 7.25341L8.5017 5.67341C9.4737 5.28941 10.5447 5.03341 11.7297 5.00341Z" fill="white"/>
</mask>
<g mask="url(#mask0_108_20890)">
<rect width="24" height="24" fill="#191B1E"/>
</g>
</svg>
